<?xml version="1.0" standalone="no"?>
<!DOCTYPE svg PUBLIC "-//W3C//DTD SVG 1.1//EN" "http://www.w3.org/Graphics/SVG/1.1/DTD/svg11.dtd" >
<svg xmlns="http://www.w3.org/2000/svg">
<metadata></metadata>
<defs>
<font id="uni_breuer_condensedlight" horiz-adv-x="954" >
<font-face units-per-em="2048" ascent="1638" descent="-410" />
<missing-glyph horiz-adv-x="473" />
<glyph unicode="&#xd;" horiz-adv-x="0" />
<glyph unicode=" "  horiz-adv-x="473" />
<glyph unicode="&#x09;" horiz-adv-x="473" />
<glyph unicode="&#xa0;" horiz-adv-x="473" />
<glyph unicode="!" horiz-adv-x="444" d="M141 1464h160l-41 -1020h-76zM145 0v162h152v-162h-152z" />
<glyph unicode="&#x22;" horiz-adv-x="548" d="M90 1464h139l-34 -540h-68zM319 1464h140l-35 -540h-68z" />
<glyph unicode="#" horiz-adv-x="929" d="M74 387l8 86h164l45 518h-162l6 86h164l35 387h94l-33 -387h201l35 387h94l-33 -387h164l-6 -86h-168l-45 -518h166l-8 -86h-164l-35 -387h-94l35 387h-203l-35 -387h-94l35 387h-166zM340 473h203l45 518h-203z" />
<glyph unicode="$" horiz-adv-x="897" d="M117 479h108q0 -128 48 -182.5t171 -54.5q74 0 121.5 16t71 50t31.5 72t8 95q0 107 -48.5 155.5t-178.5 65.5q-164 19 -239 90.5t-75 217.5q0 286 266 313v192h103v-192q256 -28 256 -330h-109q0 132 -44 189t-156 57q-103 0 -155 -52.5t-52 -176.5q0 -113 50 -159.5 t171 -62.5q185 -28 252 -93.5t67 -215.5q0 -142 -61.5 -223.5t-218.5 -99.5v-195h-103v195q-79 6 -134.5 32t-87.5 70.5t-46.5 100t-15.5 126.5z" />
<glyph unicode="%" horiz-adv-x="1132" d="M98 1159q0 178 55.5 253t178.5 75q120 0 176.5 -75.5t56.5 -252.5q0 -178 -56 -250.5t-177 -72.5q-123 0 -178.5 72t-55.5 251zM164 0l698 1464h111l-699 -1464h-110zM199 1159q0 -134 31 -185.5t102 -51.5t101 51t30 186t-30 187.5t-101 52.5t-102 -52.5t-31 -187.5z M573 301q0 177 57 252.5t179 75.5q121 0 176 -75t55 -253q0 -179 -54.5 -251.5t-176.5 -72.5t-179 73t-57 251zM678 301q0 -134 29.5 -186t101.5 -52q70 0 101.5 52.5t31.5 185.5q0 132 -32 187t-101 55q-71 0 -101 -54t-30 -188z" />
<glyph unicode="&#x26;" horiz-adv-x="1050" d="M98 395q0 120 53.5 214t135.5 136q-72 46 -114 133t-42 205q0 404 340 404q173 0 251.5 -92t78.5 -295h-109q0 158 -50 225.5t-171 67.5q-117 0 -174 -72t-57 -238q0 -132 46.5 -213.5t119.5 -81.5h540v-90h-131v-383q0 -113 35 -167t127 -54v-94q-173 0 -229 131 q-86 -154 -299 -154q-172 0 -261.5 106.5t-89.5 311.5zM207 395q0 -323 242 -323q77 0 128.5 23.5t79 71t38 106t10.5 141.5v284h-299q-89 0 -144 -83.5t-55 -219.5z" />
<glyph unicode="'" horiz-adv-x="319" d="M90 1464h139l-34 -540h-68z" />
<glyph unicode="(" horiz-adv-x="544" d="M98 641q0 257 62 491.5t178 419.5h102q-107 -173 -168 -409.5t-61 -501.5q0 -267 61 -501.5t168 -409.5h-102q-240 390 -240 911z" />
<glyph unicode=")" horiz-adv-x="544" d="M106 -270q106 176 167 410.5t61 500.5q0 264 -61 500.5t-167 410.5h101q116 -185 177.5 -419.5t61.5 -491.5q0 -523 -239 -911h-101z" />
<glyph unicode="*" horiz-adv-x="802" d="M41 1208l41 119l293 -137l-39 319h127l-39 -319l293 137l41 -119l-324 -63l223 -236l-108 -80l-150 279l-151 -279l-109 80l223 236z" />
<glyph unicode="+" horiz-adv-x="864" d="M90 573v97h291v405h104v-405h289v-97h-289v-407h-104v407h-291z" />
<glyph unicode="," horiz-adv-x="397" d="M135 188h141l-69 -458h-72v458z" />
<glyph unicode="-" horiz-adv-x="614" d="M90 606v90h434v-90h-434z" />
<glyph unicode="." horiz-adv-x="421" d="M135 0v162h152v-162h-152z" />
<glyph unicode="/" horiz-adv-x="587" d="M78 -45l328 1554h102l-328 -1554h-102z" />
<glyph unicode="0" horiz-adv-x="925" d="M102 522v418q0 292 88 419.5t275 127.5q182 0 271 -128t89 -419v-418q0 -290 -88 -417.5t-272 -127.5q-189 0 -276 126.5t-87 418.5zM209 522q0 -251 58 -350.5t198 -99.5q135 0 193.5 100.5t58.5 349.5v418q0 248 -59 350.5t-193 102.5q-139 0 -197.5 -101.5 t-58.5 -351.5v-418z" />
<glyph unicode="1" horiz-adv-x="524" d="M57 1370v57l219 37h68v-1464h-106v1370h-181z" />
<glyph unicode="2" horiz-adv-x="874" d="M90 1055q0 213 81 322.5t261 109.5q189 0 268.5 -108t79.5 -318q0 -97 -31.5 -180.5t-82 -145t-112 -118.5t-123 -112t-112.5 -113t-83 -134.5t-33 -163.5h592v-94h-699v82q0 103 32 189.5t82.5 148t112 117.5t123 109.5t112 110.5t82.5 134.5t32 169.5 q0 175 -50.5 253.5t-189.5 78.5q-130 0 -181.5 -77.5t-51.5 -260.5h-109z" />
<glyph unicode="3" horiz-adv-x="913" d="M90 1067q0 220 86 320t258 100q184 0 267 -98t83 -324q0 -228 -149 -322q188 -76 188 -335q0 -431 -374 -431q-188 0 -272.5 98.5t-84.5 325.5h109q0 -183 55 -256t193 -73q137 0 201.5 76.5t64.5 259.5q0 124 -46 207t-137 83h-167v90h167q48 0 82 46.5t48 107t14 123.5 q0 182 -54 255t-188 73q-125 0 -180 -73.5t-55 -252.5h-109z" />
<glyph unicode="4" horiz-adv-x="868" d="M45 362v87l512 1015h135v-1007h131v-95h-131v-362h-106v362h-541zM152 457h434v874q-53 -106 -204.5 -410.5t-229.5 -463.5z" />
<glyph unicode="5" horiz-adv-x="925" d="M90 418h109q0 -170 58.5 -258t193.5 -88q144 0 199 93t55 300q0 205 -55.5 289t-170.5 84q-129 0 -248 -123h-114l51 749h592v-94h-496l-39 -559q58 54 130.5 85.5t142.5 31.5q157 0 236 -106.5t79 -356.5t-83.5 -369t-278.5 -119q-102 0 -173.5 31.5t-112 92.5t-58 138 t-17.5 179z" />
<glyph unicode="6" horiz-adv-x="921" d="M113 500v452q0 200 38 317.5t114 167.5t202 50q171 0 250 -96t84 -301h-109q-2 160 -51 231.5t-174 71.5q-94 0 -146 -39.5t-76 -134.5t-24 -267v-180q63 44 139 74.5t138 30.5q179 0 256 -104t77 -339q0 -457 -352 -457q-99 0 -164.5 23t-112.5 81.5t-68 160.5t-21 258z M221 500q0 -176 26.5 -269t79.5 -126t152 -33q128 0 186 85.5t58 276.5q0 202 -52 281.5t-184 79.5q-115 0 -266 -111v-184z" />
<glyph unicode="7" horiz-adv-x="782" d="M45 1370v94h692v-80l-426 -1384h-114l428 1370h-580z" />
<glyph unicode="8" horiz-adv-x="948" d="M90 383q0 280 211 360q-85 38 -132.5 133t-47.5 224q0 387 352 387t352 -387q0 -122 -48 -218.5t-130 -140.5q97 -44 154 -136.5t57 -221.5q0 -212 -91 -309t-294 -97t-293 97t-90 309zM199 387q0 -170 61.5 -242.5t212.5 -72.5t213 72.5t62 242.5q0 61 -12 114t-37 98.5 t-71 72t-108 26.5h-94q-62 0 -107.5 -26.5t-71 -72t-37 -98.5t-11.5 -114zM231 1087q0 -136 49.5 -217.5t145.5 -81.5h94q97 0 146 81t49 218q0 165 -58.5 235.5t-183.5 70.5q-124 0 -183 -70.5t-59 -235.5z" />
<glyph unicode="9" horiz-adv-x="923" d="M90 1028q0 233 87.5 346t266.5 113q98 0 163 -22t113 -79.5t69.5 -159.5t21.5 -259v-453q0 -198 -38 -316t-113.5 -169.5t-200.5 -51.5q-175 0 -255 95.5t-83 300.5h108q0 -160 51.5 -230.5t178.5 -70.5q94 0 145 39t74.5 133.5t23.5 269.5v172q-61 -41 -138 -69.5 t-138 -28.5q-180 0 -258 103.5t-78 336.5zM199 1028q0 -202 50.5 -278t186.5 -76q61 0 136 29.5t130 78.5v185q0 106 -9.5 179t-27.5 122t-50 76t-72 38t-99 11q-128 0 -186.5 -86t-58.5 -279z" />
<glyph unicode=":" horiz-adv-x="444" d="M145 0v162h152v-162h-152zM145 784v162h152v-162h-152z" />
<glyph unicode=";" horiz-adv-x="444" d="M145 784v162h152v-162h-152zM152 188h141l-70 -458h-71v458z" />
<glyph unicode="&#x3c;" horiz-adv-x="667" d="M98 733l361 776h114l-366 -776l366 -778h-114z" />
<glyph unicode="=" horiz-adv-x="864" d="M90 344v96h684v-96h-684zM90 797v96h684v-96h-684z" />
<glyph unicode="&#x3e;" horiz-adv-x="667" d="M94 -45l369 778l-369 776h115l360 -776l-360 -778h-115z" />
<glyph unicode="?" horiz-adv-x="835" d="M84 1106q0 180 80 280.5t246 100.5q191 0 273.5 -103t82.5 -329q0 -379 -307 -422l-10 -189h-76l-15 265q165 0 232 79.5t67 266.5q0 181 -55 259.5t-192 78.5q-115 0 -166 -73.5t-51 -213.5h-109zM336 0v162h151v-162h-151z" />
<glyph unicode="@" horiz-adv-x="1406" d="M158 401v328q0 296 136 459.5t408 163.5q273 0 410 -163.5t137 -459.5v-328q0 -296 -136.5 -459t-410.5 -163q-267 0 -405.5 164t-138.5 458zM256 410q0 -545 446 -545q228 0 338.5 135t110.5 410v311q0 275 -110.5 410t-338.5 135q-225 0 -335.5 -135.5t-110.5 -409.5 v-311zM426 365q0 104 54.5 167t158.5 72l217 14v119q0 112 -31.5 155.5t-117.5 43.5q-88 0 -124 -39.5t-36 -146.5h-94q0 150 63 207t191 57q133 0 188 -62t55 -215v-602h-69l-19 80q-110 -98 -211 -98q-105 0 -165 63t-60 185zM520 367q0 -90 34.5 -129t104.5 -39 q44 0 98.5 26.5t98.5 63.5v262l-211 -25q-59 -6 -92 -46t-33 -113z" />
<glyph unicode="A" horiz-adv-x="847" d="M33 0l327 1464h127l326 -1464h-111l-88 401h-383l-88 -401h-110zM250 496h346l-115 546q-47 225 -57 310q-13 -86 -59 -310z" />
<glyph unicode="B" horiz-adv-x="966" d="M158 0v1464h344q186 0 265 -86.5t79 -287.5q0 -242 -184 -342q215 -83 215 -359q0 -215 -83.5 -302t-267.5 -87h-368zM266 94h260q134 0 189 70t55 231q0 152 -57 227.5t-176 75.5h-271v-604zM266 788h271q100 0 150 81.5t50 213.5q0 158 -53.5 222.5t-181.5 64.5h-236 v-582z" />
<glyph unicode="C" horiz-adv-x="923" d="M113 510v448q0 291 82 410t282 119q181 0 263.5 -92.5t82.5 -311.5h-106q0 174 -55.5 242t-184.5 68q-98 0 -152.5 -40t-79 -132.5t-24.5 -259.5v-453q0 -170 23.5 -262.5t78 -133t154.5 -40.5q129 0 184.5 67.5t55.5 241.5h106q0 -219 -82.5 -311.5t-263.5 -92.5 q-99 0 -165.5 25t-112 86t-66 164t-20.5 258z" />
<glyph unicode="D" horiz-adv-x="983" d="M158 0v1464h313q79 0 138.5 -14t110.5 -49.5t83 -94t49.5 -149.5t17.5 -215v-420q0 -124 -17.5 -215t-49.5 -149.5t-83 -94t-110.5 -49.5t-138.5 -14h-313zM266 94h205q72 0 123 18.5t91 65t59.5 132t19.5 212.5v420q0 127 -19.5 212.5t-59.5 132t-91 65t-123 18.5h-205 v-1276z" />
<glyph unicode="E" horiz-adv-x="876" d="M158 0v1464h606v-94h-498v-582h436v-90h-436v-604h498v-94h-606z" />
<glyph unicode="F" horiz-adv-x="811" d="M158 0v1464h575v-94h-467v-582h408v-90h-408v-698h-108z" />
<glyph unicode="G" horiz-adv-x="972" d="M113 508v453q0 288 82.5 407t281.5 119q181 0 264.5 -93t83.5 -311h-108q0 174 -55.5 242t-184.5 68q-98 0 -152.5 -40t-79 -132.5t-24.5 -259.5v-453q0 -170 23.5 -262.5t78 -133t154.5 -40.5q131 0 193.5 81t62.5 220v325h-244v90h349v-788h-72l-21 104 q-94 -127 -268 -127q-132 0 -209.5 48t-116 164.5t-38.5 318.5z" />
<glyph unicode="H" horiz-adv-x="1007" d="M158 0v1464h108v-676h475v676h109v-1464h-109v698h-475v-698h-108z" />
<glyph unicode="I" horiz-adv-x="423" d="M158 0v1464h108v-1464h-108z" />
<glyph unicode="J" horiz-adv-x="659" d="M78 2v104q98 -34 184 -34q72 0 102.5 44.5t30.5 164.5v1089h-227v94h334v-1183q0 -157 -54 -230.5t-184 -73.5q-107 0 -186 25z" />
<glyph unicode="K" horiz-adv-x="845" d="M158 0v1464h108v-663l404 663h121l-443 -706l453 -758h-123l-412 702v-702h-108z" />
<glyph unicode="L" horiz-adv-x="735" d="M158 0v1464h108v-1370h402v-94h-510z" />
<glyph unicode="M" horiz-adv-x="1261" d="M158 0v1464h157l275 -1126q7 -29 20.5 -96.5t20.5 -96.5q11 67 41 193l274 1126h158v-1464h-105v1079q0 21 2 74t5 113.5t4 76.5q-23 -115 -58 -260l-262 -1083h-119l-262 1083q-30 124 -57 260q10 -255 10 -264v-1079h-104z" />
<glyph unicode="N" horiz-adv-x="1026" d="M158 0v1464h127l417 -1091q30 -85 66 -199q-6 82 -6 207v1083h106v-1464h-127l-419 1092q-43 122 -66 198q8 -79 8 -205v-1085h-106z" />
<glyph unicode="O" d="M113 508v450q0 153 21.5 256t68.5 163t112.5 85t161.5 25t161.5 -25t112.5 -85t69 -163t22 -256v-450q0 -154 -22 -257.5t-69 -163.5t-112.5 -85t-161.5 -25t-161.5 25t-112.5 85t-68.5 163.5t-21.5 257.5zM221 508q0 -173 27 -268t80.5 -131.5t148.5 -36.5t149 36 t81.5 131.5t27.5 268.5v450q0 172 -27.5 267t-81.5 131.5t-149 36.5t-148.5 -36.5t-80.5 -131.5t-27 -267v-450z" />
<glyph unicode="P" horiz-adv-x="935" d="M158 0v1464h331q132 0 209.5 -38t117.5 -136.5t40 -271.5q0 -236 -85 -338t-277 -102h-228v-578h-108zM266 672h228q140 0 195.5 76t55.5 270q0 109 -14 178t-47 107.5t-78.5 52.5t-116.5 14h-223v-698z" />
<glyph unicode="Q" d="M113 508v450q0 153 21.5 256t68.5 163t112.5 85t161.5 25t161.5 -25t112.5 -85t69 -163t22 -256v-450q0 -189 -35.5 -303.5t-103 -165.5t-177.5 -59q0 -136 99 -136h125l-29 -84h-113q-82 0 -130 52t-48 168q-111 8 -178 58t-103 164.5t-36 305.5zM221 508 q0 -173 27 -268t80.5 -131.5t148.5 -36.5t149 36t81.5 131.5t27.5 268.5v450q0 172 -27.5 267t-81.5 131.5t-149 36.5t-148.5 -36.5t-80.5 -131.5t-27 -267v-450z" />
<glyph unicode="R" horiz-adv-x="966" d="M158 0v1464h331q132 0 209.5 -38t117.5 -136.5t40 -271.5q0 -176 -49.5 -277t-153.5 -141l211 -600h-112l-201 578h-285v-578h-108zM266 672h228q140 0 197 76t57 270q0 144 -28.5 221t-81.5 104t-149 27h-223v-698z" />
<glyph unicode="S" horiz-adv-x="913" d="M84 373h109q0 -89 16.5 -149t50.5 -92.5t78.5 -46t107.5 -13.5q142 0 199 71.5t57 225.5q0 84 -8.5 135t-35.5 95.5t-79.5 70t-138.5 39.5q-183 31 -260.5 126t-77.5 265q0 188 87 287.5t255 99.5q176 0 260 -93.5t84 -310.5h-108q0 174 -55 242t-181 68 q-120 0 -177.5 -71.5t-57.5 -221.5q0 -137 55.5 -206.5t190.5 -90.5q107 -17 177.5 -51t109.5 -90.5t54 -125.5t15 -167q0 -199 -84.5 -295.5t-280.5 -96.5q-85 0 -148 18t-113 61.5t-75.5 122.5t-25.5 194z" />
<glyph unicode="T" horiz-adv-x="743" d="M33 1370v94h676v-94h-283v-1370h-109v1370h-284z" />
<glyph unicode="U" horiz-adv-x="983" d="M135 446v1018h109v-1018q0 -209 55.5 -291.5t192.5 -82.5q138 0 192.5 82t54.5 292v1018h109v-1018q0 -138 -22.5 -230.5t-69.5 -144.5t-110 -73t-154 -21t-154 21t-110.5 73t-70 144.5t-22.5 230.5z" />
<glyph unicode="V" horiz-adv-x="851" d="M33 1464h112l281 -1312l279 1312h112l-325 -1464h-132z" />
<glyph unicode="W" horiz-adv-x="1337" d="M57 1464h111l166 -999q10 -67 24 -173.5t17 -129.5q17 147 45 301l186 1001h127l187 -1001q4 -22 45 -301q18 155 41 303l163 999h113l-252 -1464h-125l-200 1090q-29 189 -35 243q-30 -207 -37 -243l-201 -1090h-123z" />
<glyph unicode="X" horiz-adv-x="815" d="M33 0l319 750q-56 131 -160 379t-141 335h125l234 -606q46 114 132 342.5t99 263.5h123l-295 -714q51 -123 156.5 -375t156.5 -375h-120l-252 647l-252 -647h-125z" />
<glyph unicode="Y" horiz-adv-x="802" d="M33 1464h117l251 -731l252 731h115l-313 -864v-600h-109v600z" />
<glyph unicode="Z" horiz-adv-x="841" d="M90 0v74l541 1296h-525v94h642v-80l-539 -1290h555v-94h-674z" />
<glyph unicode="[" horiz-adv-x="579" d="M162 -274v1833h301v-91h-197v-1652h197v-90h-301z" />
<glyph unicode="\" horiz-adv-x="587" d="M78 1509h102l328 -1554h-102z" />
<glyph unicode="]" horiz-adv-x="581" d="M125 -184h194v1652h-194v91h299v-1833h-299v90z" />
<glyph unicode="^" horiz-adv-x="815" d="M102 795l250 669h117l250 -669h-113l-196 540l-193 -540h-115z" />
<glyph unicode="_" horiz-adv-x="774" d="M68 0v94h639v-94h-639z" />
<glyph unicode="`" horiz-adv-x="423" d="M98 1511h133l93 -262h-80z" />
<glyph unicode="a" horiz-adv-x="886" d="M96 295q0 137 66 218t196 93l295 25v162q0 152 -41.5 209t-162.5 57q-120 0 -169 -51.5t-49 -190.5h-100q0 98 22.5 165t67 102.5t99 50t129.5 14.5q167 0 238 -79t71 -277v-793h-74l-29 106q-67 -63 -130.5 -96t-137.5 -33q-134 0 -212.5 79t-78.5 239zM199 295 q0 -119 50 -173t146 -54q59 0 128 40t130 97v346l-286 -33q-79 -11 -123.5 -66.5t-44.5 -156.5z" />
<glyph unicode="b" horiz-adv-x="915" d="M139 0v1509h105v-481q147 121 254 121q80 0 136 -23t99 -80.5t63.5 -161t20.5 -257.5v-127q0 -124 -14 -215t-39.5 -150t-66 -94.5t-88 -49.5t-111.5 -14q-56 0 -128.5 37.5t-136.5 91.5l-22 -106h-72zM244 205q63 -60 130 -98.5t118 -38.5q84 0 130.5 36t69.5 129.5 t23 266.5v127q0 173 -23 266.5t-69.5 129.5t-130.5 36q-50 0 -119 -40t-129 -97v-717z" />
<glyph unicode="c" horiz-adv-x="849" d="M96 500v127q0 156 20 258t64.5 160t106.5 81t155 23q163 0 236.5 -77.5t73.5 -254.5h-103q0 130 -44 186t-163 56q-94 0 -144 -35.5t-73.5 -128t-23.5 -268.5v-127q0 -176 23.5 -268.5t73.5 -128t144 -35.5q119 0 163 55.5t44 185.5h103q0 -177 -73.5 -254.5 t-236.5 -77.5q-93 0 -155 23t-106.5 81.5t-64.5 160.5t-20 258z" />
<glyph unicode="d" horiz-adv-x="915" d="M96 500v127q0 124 14.5 215t40 149.5t66.5 94t89 49.5t112 14q103 0 254 -121v481h102v-1509h-72l-22 106q-63 -54 -134.5 -91.5t-127.5 -37.5q-64 0 -112 14t-89 49.5t-66.5 94.5t-40 150t-14.5 215zM201 500q0 -173 23 -266.5t69.5 -129.5t130.5 -36q100 0 248 137v717 q-63 58 -131 97.5t-117 39.5q-84 0 -130.5 -36t-69.5 -129.5t-23 -266.5v-127z" />
<glyph unicode="e" horiz-adv-x="862" d="M96 500v127q0 156 20 258t64 160t104.5 81t151.5 23q89 0 148 -23.5t101.5 -82.5t61.5 -161.5t19 -258.5v-105h-565q0 -117 8.5 -195t25.5 -129.5t49 -78.5t71.5 -37t101.5 -10q122 0 276 59v-102q-146 -48 -289 -48q-95 0 -156.5 22t-106.5 80t-65 160.5t-20 260.5z M201 608h461q0 187 -20 282t-67 132t-139 37t-140.5 -36.5t-71.5 -133t-23 -281.5z" />
<glyph unicode="f" horiz-adv-x="493" d="M45 1036v66l98 24v185q0 221 195 221q54 0 121 -25v-92q-68 27 -119 27q-48 0 -70 -30.5t-22 -102.5v-183h164v-90h-164v-1036h-105v1036h-98z" />
<glyph unicode="g" horiz-adv-x="915" d="M96 522v105q0 124 14.5 215t40.5 149.5t67 94t89.5 49.5t112.5 14q59 0 128.5 -37t129.5 -92l22 106h74v-1128q0 -221 -65 -312.5t-238 -91.5q-148 0 -266 48v106q139 -61 266 -61q79 0 121 26.5t61 93t19 191.5v123q-60 -51 -128 -86t-124 -35q-64 0 -112.5 14 t-89.5 49.5t-67 94t-40.5 149.5t-14.5 215zM201 522q0 -172 23.5 -265.5t70 -129t131.5 -35.5q49 0 117 39.5t129 97.5v693q-62 57 -130 97t-116 40q-85 0 -131.5 -36t-70 -129.5t-23.5 -266.5v-105z" />
<glyph unicode="h" horiz-adv-x="913" d="M139 0v1509h105v-483q133 123 252 123q102 0 162 -32.5t92 -118.5t32 -238v-760h-104v760q0 118 -20.5 183.5t-60 90.5t-108.5 25q-100 0 -245 -137v-922h-105z" />
<glyph unicode="i" horiz-adv-x="401" d="M137 1374v135h127v-135h-127zM150 0v1126h102v-1126h-102z" />
<glyph unicode="j" horiz-adv-x="395" d="M-61 -283q68 -30 118 -30q45 0 64.5 37.5t19.5 123.5v1278h105v-1276q0 -131 -42.5 -193.5t-140.5 -62.5q-72 0 -124 25v98zM131 1374v135h125v-135h-125z" />
<glyph unicode="k" horiz-adv-x="772" d="M139 0v1509h105v-868l336 485h120l-381 -532q84 -116 418 -594h-127l-366 543v-543h-105z" />
<glyph unicode="l" horiz-adv-x="382" d="M139 0v1509h105v-1509h-105z" />
<glyph unicode="m" horiz-adv-x="1347" d="M139 0v1126h70l22 -106q142 129 261 129q86 0 137.5 -35.5t83.5 -101.5q127 137 262 137q74 0 123 -21t74.5 -65.5t35 -98.5t9.5 -135v-829h-105v829q0 125 -34 177.5t-120 52.5q-84 0 -229 -137v-922h-102v829q0 126 -33 178t-119 52q-88 0 -231 -135v-924h-105z" />
<glyph unicode="n" horiz-adv-x="913" d="M139 0v1126h72l22 -106q149 129 263 129q102 0 162 -32.5t92 -118.5t32 -238v-760h-104v760q0 118 -20.5 183.5t-60 90.5t-108.5 25q-100 0 -245 -137v-922h-105z" />
<glyph unicode="o" horiz-adv-x="878" d="M96 500v127q0 154 18.5 254t61.5 160t106 84t158 24t157 -24t105 -84t61.5 -160t18.5 -254v-127q0 -154 -18.5 -254t-61 -160.5t-105 -84.5t-157.5 -24q-96 0 -159 24t-105.5 84.5t-61 160.5t-18.5 254zM201 500q0 -176 22 -267.5t72 -128t145 -36.5t144.5 36.5t71.5 128 t22 267.5v127q0 176 -22 267.5t-71.5 128t-144.5 36.5t-145 -36.5t-72 -128t-22 -267.5v-127z" />
<glyph unicode="p" horiz-adv-x="915" d="M139 -383v1509h72l27 -106q63 57 133 93t127 36q80 0 136 -23t99 -80.5t63.5 -161t20.5 -257.5v-127q0 -124 -14 -215t-39.5 -150t-66 -94.5t-88 -49.5t-111.5 -14q-111 0 -254 121v-481h-105zM244 203q62 -59 129 -97t119 -38q84 0 130.5 36t69.5 129.5t23 266.5v127 q0 173 -23 266.5t-69.5 129.5t-130.5 36q-50 0 -119.5 -39.5t-128.5 -95.5v-721z" />
<glyph unicode="q" horiz-adv-x="915" d="M96 500v127q0 124 14.5 215t40 149.5t66.5 94t89 49.5t112 14q113 0 260 -129l24 106h72v-1509h-102v481q-147 -121 -254 -121q-64 0 -112 14t-89 49.5t-66.5 94.5t-40 150t-14.5 215zM201 500q0 -173 23 -266.5t69.5 -129.5t130.5 -36q51 0 117.5 37.5t130.5 97.5v721 q-62 57 -130 96t-118 39q-84 0 -130.5 -36t-69.5 -129.5t-23 -266.5v-127z" />
<glyph unicode="r" horiz-adv-x="536" d="M139 0v1126h76l18 -96q54 59 111 89t137 30v-105q-83 0 -134.5 -27.5t-102.5 -94.5v-922h-105z" />
<glyph unicode="s" horiz-adv-x="831" d="M84 309h102q0 -128 50.5 -184.5t171.5 -56.5q75 0 124 16.5t72.5 50.5t32 72.5t8.5 95.5q0 101 -55.5 150.5t-179.5 68.5q-155 22 -231.5 96t-76.5 216q0 162 82 238.5t228 76.5q162 0 236.5 -79.5t74.5 -252.5h-100q0 129 -48.5 185.5t-162.5 56.5q-103 0 -155 -51.5 t-52 -173.5q0 -109 54.5 -157.5t168.5 -64.5q173 -23 246.5 -93.5t73.5 -215.5q0 -59 -7.5 -104t-29 -88.5t-58.5 -71.5t-99 -45t-146 -17q-96 0 -160.5 23.5t-99.5 69.5t-49 103t-15 136z" />
<glyph unicode="t" horiz-adv-x="520" d="M45 1036v66l98 24v267l105 24v-291h196v-90h-196v-819q0 -84 22.5 -116.5t73.5 -32.5q47 0 131 30v-96q-63 -25 -137 -25q-101 0 -148 53.5t-47 186.5v819h-98z" />
<glyph unicode="u" horiz-adv-x="905" d="M131 367v759h102v-759q0 -117 22 -183t62.5 -91t110.5 -25q54 0 119.5 39t124.5 98v921h102v-1126h-74l-20 104q-127 -127 -258 -127q-75 0 -126.5 17.5t-90 61t-56.5 120.5t-18 191z" />
<glyph unicode="v" horiz-adv-x="774" d="M29 1126h108l250 -1001l250 1001h108l-299 -1126h-116z" />
<glyph unicode="w" horiz-adv-x="1198" d="M49 1126h109l176 -1005l194 1005h142l194 -1005l176 1005h109l-213 -1126h-139l-197 1020l-199 -1020h-137z" />
<glyph unicode="x" horiz-adv-x="778" d="M29 0l301 586l-279 540h115l180 -376l43 -93q29 62 43 93l180 376h115l-276 -540l299 -586h-113l-205 424l-43 92q-27 -61 -43 -92l-205 -424h-112z" />
<glyph unicode="y" horiz-adv-x="778" d="M29 1126h112l248 -966l246 966h113l-349 -1296q-35 -130 -89.5 -183t-151.5 -53q-63 0 -101 21v102q51 -30 101 -30q51 0 86.5 38t58.5 138l35 139z" />
<glyph unicode="z" horiz-adv-x="806" d="M90 0v70l490 966h-474v90h596v-69l-487 -967h512v-90h-637z" />
<glyph unicode="{" horiz-adv-x="706" d="M96 596v94h125q37 0 52.5 24.5t15.5 88.5v547q0 117 43.5 163t144.5 46h111v-91h-111q-44 0 -65 -25t-21 -93v-547q0 -58 -19 -94.5t-61 -63.5q42 -30 61 -68t19 -96v-547q0 -69 20.5 -93.5t65.5 -24.5h111v-90h-111q-101 0 -144.5 45.5t-43.5 162.5v547q0 64 -15.5 89.5 t-52.5 25.5h-125z" />
<glyph unicode="|" horiz-adv-x="428" d="M160 -270v1824h108v-1824h-108z" />
<glyph unicode="}" horiz-adv-x="708" d="M121 -184h110q46 0 66 24t20 94v547q0 58 19.5 96t62.5 68q-43 27 -62.5 63.5t-19.5 94.5v547q0 69 -20.5 93.5t-65.5 24.5h-110v91h110q101 0 146 -46t45 -163v-547q0 -64 15 -88.5t52 -24.5h123v-94h-123q-37 0 -52 -25.5t-15 -89.5v-547q0 -117 -45 -162.5t-146 -45.5 h-110v90z" />
<glyph unicode="~" horiz-adv-x="761" d="M74 1243q0 130 45.5 187t130.5 57q36 0 69 -18.5t57.5 -44.5t46.5 -52t45 -44.5t44 -18.5q43 0 62.5 36t19.5 119h92q0 -131 -44.5 -187t-127.5 -56q-41 0 -76.5 18t-59.5 43.5t-44.5 51t-41.5 43.5t-40 18q-42 0 -60 -34t-18 -118h-100z" />
<glyph unicode="&#xa1;" horiz-adv-x="444" d="M141 -338l43 1020h76l41 -1020h-160zM145 965v161h152v-161h-152z" />
<glyph unicode="&#xa2;" horiz-adv-x="854" d="M96 672v125q0 186 33 297.5t94.5 161t163.5 59.5v192h107v-192q133 -12 198.5 -92t65.5 -238h-109q0 131 -43.5 188.5t-161.5 57.5q-94 0 -144 -36t-73.5 -129t-23.5 -269v-125q0 -108 8 -181.5t24.5 -123.5t46 -77.5t68 -38.5t94.5 -11q119 0 162 54.5t43 182.5h109 q0 -157 -65.5 -238.5t-198.5 -93.5v-190h-107v195q-73 9 -124.5 38.5t-90 88.5t-57.5 157t-19 238z" />
<glyph unicode="&#xa3;" horiz-adv-x="931" d="M76 0v94h16q164 0 164 312q0 90 -37 249h-143v86h121q-58 202 -58 361q0 385 318 385q161 0 236 -90.5t75 -290.5h-111q0 163 -44.5 225t-155.5 62q-106 0 -156.5 -68t-50.5 -223q0 -161 49 -359h219v-88h-199q37 -130 37 -249q0 -226 -102 -312h340q76 0 108.5 48.5 t32.5 158.5h107q0 -154 -56 -227.5t-190 -73.5h-520z" />
<glyph unicode="&#xa4;" horiz-adv-x="1040" d="M104 141l127 150q-59 131 -59 379v123q0 252 57 378l-125 146l70 65l119 -133q83 74 225 74q137 0 223 -74l121 133l74 -65l-131 -146q59 -131 59 -378v-123q0 -253 -59 -381l131 -148l-74 -63l-119 133q-81 -72 -225 -72q-143 0 -227 72l-117 -133zM279 670 q0 -176 22.5 -269t72.5 -130.5t144 -37.5t144 37.5t73 130.5t23 269v123q0 176 -23 268.5t-73 129t-144 36.5t-144 -36.5t-72.5 -129t-22.5 -268.5v-123z" />
<glyph unicode="&#xa5;" horiz-adv-x="890" d="M74 1464h114l256 -731l252 731h117l-315 -868v-88h241v-86h-241v-168h241v-88h-241v-166h-109v166h-239v88h239v168h-239v86h239v88z" />
<glyph unicode="&#xa6;" horiz-adv-x="428" d="M160 -270v762h108v-762h-108zM160 793v761h108v-761h-108z" />
<glyph unicode="&#xa7;" horiz-adv-x="948" d="M113 588q0 90 39 163t104 123q-61 41 -88 103.5t-27 157.5q0 161 85.5 256.5t240.5 95.5q163 0 245.5 -91.5t82.5 -291.5h-109q0 157 -52 222t-167 65q-219 0 -219 -256q0 -113 51.5 -168.5t175.5 -75.5q199 -32 280 -119t81 -260q0 -92 -38.5 -166t-105.5 -121 q115 -94 115 -262q0 -160 -85 -253t-241 -93q-163 0 -246 91.5t-83 291.5h108q0 -157 53.5 -222t167.5 -65q113 0 166 63t53 187q0 116 -51 171t-176 75q-198 32 -279 119t-81 260zM221 588q0 -135 57.5 -198t206.5 -91q66 -10 138 -35q104 55 104 248q0 139 -54.5 200 t-207.5 89q-82 11 -139 35q-50 -31 -77.5 -96.5t-27.5 -151.5z" />
<glyph unicode="&#xa8;" horiz-adv-x="698" d="M160 1264v135h127v-135h-127zM385 1264v135h127v-135h-127z" />
<glyph unicode="&#xa9;" horiz-adv-x="1406" d="M158 567v330q0 296 136 458.5t408 162.5q274 0 410.5 -162.5t136.5 -458.5v-330q0 -296 -136.5 -458t-410.5 -162q-267 0 -405.5 163t-138.5 457zM256 578q0 -547 446 -547q228 0 338.5 135.5t110.5 411.5v309q0 276 -110.5 411.5t-338.5 135.5q-225 0 -335.5 -135.5 t-110.5 -411.5v-309zM449 682v100q0 111 15.5 184.5t49.5 115.5t80.5 58.5t114.5 16.5q120 0 176.5 -61.5t56.5 -192.5h-100q0 88 -29.5 129t-103.5 41q-92 0 -127 -61t-35 -230v-100q0 -115 18.5 -179.5t52.5 -88t91 -23.5q74 0 103.5 40.5t29.5 131.5h100 q0 -135 -56 -195.5t-177 -60.5q-68 0 -114.5 16.5t-80.5 58.5t-49.5 115.5t-15.5 184.5z" />
<glyph unicode="&#xaa;" horiz-adv-x="722" d="M90 805q0 108 52 174t159 78l225 22v123q0 114 -30.5 157.5t-120.5 43.5q-87 0 -121.5 -38.5t-34.5 -141.5h-94q0 78 17 131t51 81.5t77.5 40t104.5 11.5q137 0 192.5 -63.5t55.5 -221.5v-635h-68l-18 80q-47 -50 -95.5 -75t-111.5 -25q-112 0 -176 64t-64 194zM184 807 q0 -176 148 -176q104 0 194 104v275l-211 -27q-131 -17 -131 -176z" />
<glyph unicode="&#xab;" horiz-adv-x="829" d="M113 563l231 408h107l-230 -408l230 -407h-105zM381 563l229 408h107l-228 -408l228 -407h-105z" />
<glyph unicode="&#xac;" horiz-adv-x="874" d="M90 801v94h690v-573h-104v479h-586z" />
<glyph unicode="&#xad;" horiz-adv-x="614" d="M90 606v90h434v-90h-434z" />
<glyph unicode="&#xae;" horiz-adv-x="1406" d="M158 567v330q0 296 136 458.5t408 162.5q274 0 410.5 -162.5t136.5 -458.5v-330q0 -296 -136.5 -458t-410.5 -162q-267 0 -405.5 163t-138.5 457zM256 578q0 -547 446 -547q228 0 338.5 135.5t110.5 411.5v309q0 276 -110.5 411.5t-338.5 135.5q-225 0 -335.5 -135.5 t-110.5 -411.5v-309zM492 324v817h213q118 0 176.5 -55.5t58.5 -194.5q0 -87 -35.5 -147t-89.5 -89l135 -331h-104l-125 317h-131v-317h-98zM590 725h117q68 0 100.5 36.5t32.5 129.5q0 97 -33 130.5t-102 33.5h-115v-330z" />
<glyph unicode="&#xaf;" horiz-adv-x="684" d="M141 1284v90h402v-90h-402z" />
<glyph unicode="&#xb0;" horiz-adv-x="716" d="M90 1133q0 198 64.5 276t201.5 78q92 0 148.5 -31t87.5 -109.5t31 -213.5q0 -104 -16.5 -173.5t-51.5 -109.5t-82.5 -56t-116.5 -16q-92 0 -147.5 29.5t-87 108.5t-31.5 217zM195 1133q0 -108 17 -167t50.5 -81.5t93.5 -22.5q90 0 127 56.5t37 214.5q0 156 -37 212 t-127 56q-89 0 -125 -55.5t-36 -212.5z" />
<glyph unicode="&#xb1;" horiz-adv-x="874" d="M90 0v94h690v-94h-690zM90 721v94h293v408h104v-408h293v-94h-293v-406h-104v406h-293z" />
<glyph unicode="&#xb2;" horiz-adv-x="612" d="M145 1343q0 224 168 224q93 0 130.5 -54t37.5 -157q0 -52 -27 -99t-65 -82.5t-77 -70.5t-66.5 -77.5t-28.5 -88.5h275v-61h-340v47q0 63 27 113.5t65 84.5t76 66.5t65 75t27 92.5q0 76 -22.5 112.5t-76.5 36.5t-76 -38t-22 -124h-70z" />
<glyph unicode="&#xb3;" horiz-adv-x="616" d="M135 1061h68q0 -80 23.5 -108.5t80.5 -28.5t84 32t27 105q0 131 -74 131h-88v57h88q59 0 59 109q0 80 -23.5 113.5t-78.5 33.5q-54 0 -76 -28t-22 -109h-68q0 105 42.5 152t123.5 47q88 0 129 -50t41 -157q0 -41 -19.5 -79.5t-48.5 -57.5q82 -44 82 -162 q0 -197 -178 -197q-89 0 -130.5 45t-41.5 152z" />
<glyph unicode="&#xb4;" horiz-adv-x="423" d="M109 1249l92 262h133l-146 -262h-79z" />
<glyph unicode="&#xb5;" horiz-adv-x="917" d="M139 -383v1509h105v-921q145 -137 245 -137q69 0 108.5 25t60 90.5t20.5 183.5v759h104v-759q0 -152 -32 -238.5t-92 -119t-162 -32.5q-121 0 -252 121v-481h-105z" />
<glyph unicode="&#xb6;" horiz-adv-x="1185" d="M102 922q0 154 31.5 262t92.5 168t139 86t184 26h479v-1847h-108v1753h-107v-1753h-108v774h-158q-445 0 -445 531z" />
<glyph unicode="&#xb7;" horiz-adv-x="434" d="M141 662v163h152v-163h-152z" />
<glyph unicode="&#xb8;" horiz-adv-x="421" d="M84 -328h98q41 0 62.5 21.5t21.5 58.5q0 41 -20.5 59.5t-63.5 18.5h-37l33 170h74l-21 -106q52 -5 89.5 -40.5t37.5 -101.5q0 -88 -49 -123t-141 -35h-84v78z" />
<glyph unicode="&#xb9;" horiz-adv-x="485" d="M111 1489v41l135 24h43v-677h-70v612h-108z" />
<glyph unicode="&#xba;" horiz-adv-x="735" d="M90 967v98q0 164 29.5 256.5t88 129t159.5 36.5q103 0 161.5 -36.5t87.5 -128.5t29 -257v-98q0 -164 -28.5 -255.5t-87 -128t-162.5 -36.5q-101 0 -159.5 36.5t-88 128.5t-29.5 255zM184 967q0 -135 18.5 -207t56.5 -100.5t108 -28.5t108 28.5t56 100.5t18 207v98 q0 136 -18 208.5t-56 101t-108 28.5t-108 -28.5t-56.5 -101t-18.5 -208.5v-98z" />
<glyph unicode="&#xbb;" horiz-adv-x="827" d="M113 156l229 407l-229 408h108l225 -406l-225 -409h-108zM379 156l231 407l-231 408h108l228 -406l-228 -409h-108z" />
<glyph unicode="&#xbc;" horiz-adv-x="1134" d="M143 1399v41l136 24h43v-678h-70v613h-109zM145 0l713 1464h72l-711 -1464h-74zM557 162v49l244 467h86v-457h71v-59h-71v-162h-68v162h-262zM625 221h194v381z" />
<glyph unicode="&#xbd;" horiz-adv-x="1128" d="M143 1399v41l136 24h43v-678h-70v613h-109zM145 0l713 1464h72l-711 -1464h-74zM635 467q0 219 168 219q92 0 130 -52.5t38 -154.5q0 -52 -27 -99t-65.5 -82.5t-77.5 -70.5t-67 -77.5t-29 -88.5h276v-61h-342v47q0 53 19.5 98t48.5 74t63 60t63 56.5t48.5 63t19.5 80.5 q0 76 -22 112t-76 36q-56 0 -78.5 -37.5t-22.5 -122.5h-67z" />
<glyph unicode="&#xbe;" horiz-adv-x="1198" d="M145 971h70q0 -79 23 -108t79 -29q57 0 84 32t27 105q0 131 -72 131h-88v57h88q58 0 58 109q0 79 -23.5 113t-77.5 34t-76 -28t-22 -109h-70q0 105 42.5 152t125.5 47q86 0 127 -50t41 -157q0 -42 -19 -80t-48 -57q82 -42 82 -162q0 -197 -179 -197q-89 0 -130.5 45 t-41.5 152zM209 0l713 1464h71l-712 -1464h-72zM618 162v49l244 467h88v-457h70v-59h-70v-162h-67v162h-265zM686 221h197v381z" />
<glyph unicode="&#xbf;" horiz-adv-x="876" d="M98 72q0 191 80.5 296t227.5 126l12 188h76l14 -264q-166 0 -233.5 -79.5t-67.5 -266.5q0 -180 55.5 -259t192.5 -79q116 0 167.5 73t51.5 213h108q0 -180 -80.5 -280t-246.5 -100q-190 0 -273.5 103.5t-83.5 328.5zM379 965v161h149v-161h-149z" />
<glyph unicode="&#xc0;" horiz-adv-x="847" d="M33 0l327 1464h127l326 -1464h-111l-88 401h-383l-88 -401h-110zM248 1849h133l92 -262h-80zM250 496h346l-115 546q-47 225 -57 310q-13 -86 -59 -310z" />
<glyph unicode="&#xc1;" horiz-adv-x="847" d="M33 0l327 1464h127l326 -1464h-111l-88 401h-383l-88 -401h-110zM250 496h346l-115 546q-47 225 -57 310q-13 -86 -59 -310zM393 1587l92 262h133l-145 -262h-80z" />
<glyph unicode="&#xc2;" horiz-adv-x="847" d="M33 0l327 1464h127l326 -1464h-111l-88 401h-383l-88 -401h-110zM250 496h346l-115 546q-47 225 -57 310q-13 -86 -59 -310zM252 1587l113 262h122l113 -262h-84l-90 170l-90 -170h-84z" />
<glyph unicode="&#xc3;" horiz-adv-x="847" d="M33 0l327 1464h127l326 -1464h-111l-88 401h-383l-88 -401h-110zM190 1614q0 188 138 188q26 0 49.5 -12.5t41.5 -30t34.5 -34.5t35 -29.5t37.5 -12.5q54 0 54 105h82q0 -98 -37 -143.5t-99 -45.5q-33 0 -60.5 12.5t-45 29.5t-32.5 34.5t-30 30t-30 12.5q-32 0 -45 -25 t-13 -79h-80zM250 496h346l-115 546q-47 225 -57 310q-13 -86 -59 -310z" />
<glyph unicode="&#xc4;" horiz-adv-x="847" d="M33 0l327 1464h127l326 -1464h-111l-88 401h-383l-88 -401h-110zM250 496h346l-115 546q-47 225 -57 310q-13 -86 -59 -310zM252 1602v135h127v-135h-127zM477 1602v135h127v-135h-127z" />
<glyph unicode="&#xc5;" horiz-adv-x="847" d="M33 0l327 1464h127l326 -1464h-111l-88 401h-383l-88 -401h-110zM250 496h346l-115 546q-47 225 -57 310q-13 -86 -59 -310zM260 1755q0 87 45.5 133.5t122.5 46.5t122.5 -46.5t45.5 -133.5q0 -89 -45 -134.5t-123 -45.5t-123 45.5t-45 134.5zM346 1755q0 -50 21.5 -77 t60.5 -27t60.5 27t21.5 77q0 48 -22 76.5t-60 28.5t-60 -28.5t-22 -76.5z" />
<glyph unicode="&#xc6;" horiz-adv-x="1427" d="M33 0l606 1464h674v-94h-498v-582h438v-90h-438v-604h498v-94h-606v401h-396q-29 -65 -84 -200.5t-84 -200.5h-110zM352 498h355v872z" />
<glyph unicode="&#xc7;" horiz-adv-x="923" d="M113 510v448q0 291 82 410t282 119q181 0 263.5 -92.5t82.5 -311.5h-106q0 174 -55.5 242t-184.5 68q-98 0 -152.5 -40t-79 -132.5t-24.5 -259.5v-453q0 -170 23.5 -262.5t78 -133t154.5 -40.5q129 0 184.5 67.5t55.5 241.5h106q0 -211 -77.5 -304.5t-243.5 -99.5 l-15 -83q51 -5 88 -40.5t37 -101.5q0 -88 -48 -123t-140 -35h-86v78h98q41 0 62.5 21.5t21.5 58.5q0 41 -20.5 59.5t-63.5 18.5h-35l27 150q-114 8 -181 59.5t-100.5 165t-33.5 305.5z" />
<glyph unicode="&#xc8;" horiz-adv-x="876" d="M158 0v1464h606v-94h-498v-582h436v-90h-436v-604h498v-94h-606zM319 1849h134l92 -262h-80z" />
<glyph unicode="&#xc9;" horiz-adv-x="876" d="M158 0v1464h606v-94h-498v-582h436v-90h-436v-604h498v-94h-606zM432 1587l92 262h133l-145 -262h-80z" />
<glyph unicode="&#xca;" horiz-adv-x="876" d="M158 0v1464h606v-94h-498v-582h436v-90h-436v-604h498v-94h-606zM307 1587l113 262h123l112 -262h-84l-90 170l-90 -170h-84z" />
<glyph unicode="&#xcb;" horiz-adv-x="876" d="M158 0v1464h606v-94h-498v-582h436v-90h-436v-604h498v-94h-606zM303 1602v135h127v-135h-127zM528 1602v135h127v-135h-127z" />
<glyph unicode="&#xcc;" horiz-adv-x="423" d="M31 1849h133l92 -262h-80zM158 0v1464h108v-1464h-108z" />
<glyph unicode="&#xcd;" horiz-adv-x="423" d="M158 0v1464h108v-1464h-108zM174 1587l92 262h133l-145 -262h-80z" />
<glyph unicode="&#xce;" horiz-adv-x="423" d="M37 1587l113 262h122l113 -262h-84l-90 170l-90 -170h-84zM158 0v1464h108v-1464h-108z" />
<glyph unicode="&#xcf;" horiz-adv-x="423" d="M35 1602v135h127v-135h-127zM158 0v1464h108v-1464h-108zM260 1602v135h127v-135h-127z" />
<glyph unicode="&#xd0;" horiz-adv-x="983" d="M33 700v86h125v678h313q79 0 138.5 -14t110.5 -49.5t83 -94t49.5 -149.5t17.5 -215v-420q0 -124 -17.5 -215t-49.5 -149.5t-83 -94t-110.5 -49.5t-138.5 -14h-313v700h-125zM266 94h205q72 0 123 18.5t91 65t59.5 132t19.5 212.5v420q0 127 -19.5 212.5t-59.5 132t-91 65 t-123 18.5h-205v-584h207v-86h-207v-606z" />
<glyph unicode="&#xd1;" horiz-adv-x="1026" d="M158 0v1464h127l417 -1091q30 -85 66 -199q-6 82 -6 207v1083h106v-1464h-127l-419 1092q-43 122 -66 198q8 -79 8 -205v-1085h-106zM281 1614q0 188 137 188q26 0 49.5 -12.5t41.5 -30t34.5 -34.5t35 -29.5t37.5 -12.5q54 0 54 105h82q0 -98 -37 -143.5t-99 -45.5 q-33 0 -60.5 12.5t-45 29.5t-32.5 34.5t-30 30t-30 12.5q-32 0 -45 -25t-13 -79h-79z" />
<glyph unicode="&#xd2;" d="M113 508v450q0 153 21.5 256t68.5 163t112.5 85t161.5 25t161.5 -25t112.5 -85t69 -163t22 -256v-450q0 -154 -22 -257.5t-69 -163.5t-112.5 -85t-161.5 -25t-161.5 25t-112.5 85t-68.5 163.5t-21.5 257.5zM221 508q0 -173 27 -268t80.5 -131.5t148.5 -36.5t149 36 t81.5 131.5t27.5 268.5v450q0 172 -27.5 267t-81.5 131.5t-149 36.5t-148.5 -36.5t-80.5 -131.5t-27 -267v-450zM309 1849h133l93 -262h-80z" />
<glyph unicode="&#xd3;" d="M113 508v450q0 153 21.5 256t68.5 163t112.5 85t161.5 25t161.5 -25t112.5 -85t69 -163t22 -256v-450q0 -154 -22 -257.5t-69 -163.5t-112.5 -85t-161.5 -25t-161.5 25t-112.5 85t-68.5 163.5t-21.5 257.5zM221 508q0 -173 27 -268t80.5 -131.5t148.5 -36.5t149 36 t81.5 131.5t27.5 268.5v450q0 172 -27.5 267t-81.5 131.5t-149 36.5t-148.5 -36.5t-80.5 -131.5t-27 -267v-450zM455 1587l92 262h133l-145 -262h-80z" />
<glyph unicode="&#xd4;" d="M113 508v450q0 153 21.5 256t68.5 163t112.5 85t161.5 25t161.5 -25t112.5 -85t69 -163t22 -256v-450q0 -154 -22 -257.5t-69 -163.5t-112.5 -85t-161.5 -25t-161.5 25t-112.5 85t-68.5 163.5t-21.5 257.5zM221 508q0 -173 27 -268t80.5 -131.5t148.5 -36.5t149 36 t81.5 131.5t27.5 268.5v450q0 172 -27.5 267t-81.5 131.5t-149 36.5t-148.5 -36.5t-80.5 -131.5t-27 -267v-450zM305 1587l113 262h123l112 -262h-84l-90 170l-90 -170h-84z" />
<glyph unicode="&#xd5;" d="M113 508v450q0 153 21.5 256t68.5 163t112.5 85t161.5 25t161.5 -25t112.5 -85t69 -163t22 -256v-450q0 -154 -22 -257.5t-69 -163.5t-112.5 -85t-161.5 -25t-161.5 25t-112.5 85t-68.5 163.5t-21.5 257.5zM221 508q0 -173 27 -268t80.5 -131.5t148.5 -36.5t149 36 t81.5 131.5t27.5 268.5v450q0 172 -27.5 267t-81.5 131.5t-149 36.5t-148.5 -36.5t-80.5 -131.5t-27 -267v-450zM244 1614q0 188 137 188q32 0 61.5 -18.5t48 -41t43 -41t46.5 -18.5q53 0 53 105h82q0 -99 -36.5 -144t-98.5 -45q-40 0 -73 18.5t-50.5 41t-37.5 41t-38 18.5 q-31 0 -44 -25t-13 -79h-80z" />
<glyph unicode="&#xd6;" d="M113 508v450q0 153 21.5 256t68.5 163t112.5 85t161.5 25t161.5 -25t112.5 -85t69 -163t22 -256v-450q0 -154 -22 -257.5t-69 -163.5t-112.5 -85t-161.5 -25t-161.5 25t-112.5 85t-68.5 163.5t-21.5 257.5zM221 508q0 -173 27 -268t80.5 -131.5t148.5 -36.5t149 36 t81.5 131.5t27.5 268.5v450q0 172 -27.5 267t-81.5 131.5t-149 36.5t-148.5 -36.5t-80.5 -131.5t-27 -267v-450zM305 1602v135h127v-135h-127zM530 1602v135h127v-135h-127z" />
<glyph unicode="&#xd7;" horiz-adv-x="985" d="M90 287l332 331l-332 332l68 68l334 -328l331 328l70 -68l-332 -332l334 -331l-70 -70l-333 332l-334 -332z" />
<glyph unicode="&#xd8;" d="M106 -45l72 172q-65 116 -65 381v450q0 153 21.5 256t68.5 163t112.5 85t161.5 25q162 0 244 -76l43 98h86l-72 -172q64 -128 64 -379v-450q0 -154 -22 -257.5t-69 -163.5t-112.5 -85t-161.5 -25q-161 0 -246 74l-38 -96h-87zM221 508q0 -141 19 -238l436 1033 q-31 49 -79 69.5t-120 20.5q-95 0 -148.5 -36.5t-80.5 -131.5t-27 -267v-450zM279 162q30 -49 78 -69.5t120 -20.5q95 0 149 36t81.5 131.5t27.5 268.5v450q0 132 -20 234z" />
<glyph unicode="&#xd9;" horiz-adv-x="987" d="M137 446v1018h109v-1018q0 -209 55.5 -291.5t192.5 -82.5q138 0 192.5 82t54.5 292v1018h109v-1018q0 -138 -22.5 -230.5t-69.5 -144.5t-110 -73t-154 -21t-154 21t-110.5 73t-70 144.5t-22.5 230.5zM322 1849h133l92 -262h-80z" />
<glyph unicode="&#xda;" horiz-adv-x="987" d="M137 446v1018h109v-1018q0 -209 55.5 -291.5t192.5 -82.5q138 0 192.5 82t54.5 292v1018h109v-1018q0 -138 -22.5 -230.5t-69.5 -144.5t-110 -73t-154 -21t-154 21t-110.5 73t-70 144.5t-22.5 230.5zM453 1587l92 262h133l-146 -262h-79z" />
<glyph unicode="&#xdb;" horiz-adv-x="987" d="M137 446v1018h109v-1018q0 -209 55.5 -291.5t192.5 -82.5q138 0 192.5 82t54.5 292v1018h109v-1018q0 -138 -22.5 -230.5t-69.5 -144.5t-110 -73t-154 -21t-154 21t-110.5 73t-70 144.5t-22.5 230.5zM322 1587l112 262h123l113 -262h-84l-90 170l-90 -170h-84z" />
<glyph unicode="&#xdc;" horiz-adv-x="987" d="M137 446v1018h109v-1018q0 -209 55.5 -291.5t192.5 -82.5q138 0 192.5 82t54.5 292v1018h109v-1018q0 -138 -22.5 -230.5t-69.5 -144.5t-110 -73t-154 -21t-154 21t-110.5 73t-70 144.5t-22.5 230.5zM319 1602v135h127v-135h-127zM545 1602v135h127v-135h-127z" />
<glyph unicode="&#xdd;" horiz-adv-x="804" d="M35 1464h117l251 -731l252 731h115l-313 -864v-600h-109v600zM362 1587l93 262h133l-146 -262h-80z" />
<glyph unicode="&#xde;" horiz-adv-x="944" d="M162 0v1464h108v-282h222q98 0 164 -20.5t113 -71t68 -137.5t21 -218q0 -236 -85.5 -338t-276.5 -102h-226v-295h-108zM270 389h226q142 0 198 76t56 270q0 110 -14 179t-47.5 107.5t-78.5 52t-118 13.5h-222v-698z" />
<glyph unicode="&#xdf;" horiz-adv-x="966" d="M141 0v1155q0 377 316 377q162 0 238.5 -94.5t76.5 -284.5q0 -116 -41 -196.5t-115 -118.5q112 -29 182 -126.5t70 -277.5v-31q0 -100 -18.5 -176t-49.5 -123t-77.5 -76t-96.5 -40t-112 -11q-93 0 -180 23v98q86 -30 180 -30q43 0 77.5 8t68 30t56 58.5t36.5 97t14 141.5 v31q0 102 -21 172.5t-59.5 106.5t-81 50.5t-96.5 14.5h-109v90h60q215 0 215 285q0 149 -50 219t-167 70q-116 0 -163.5 -69.5t-47.5 -217.5v-1155h-105z" />
<glyph unicode="&#xe0;" horiz-adv-x="886" d="M96 295q0 137 66 218t196 93l295 25v162q0 152 -41.5 209t-162.5 57q-120 0 -169 -51.5t-49 -190.5h-100q0 98 22.5 165t67 102.5t99 50t129.5 14.5q167 0 238 -79t71 -277v-793h-74l-29 106q-67 -63 -130.5 -96t-137.5 -33q-134 0 -212.5 79t-78.5 239zM199 295 q0 -119 50 -173t146 -54q59 0 128 40t130 97v346l-286 -33q-79 -11 -123.5 -66.5t-44.5 -156.5zM276 1511h134l92 -262h-80z" />
<glyph unicode="&#xe1;" horiz-adv-x="886" d="M96 295q0 137 66 218t196 93l295 25v162q0 152 -41.5 209t-162.5 57q-120 0 -169 -51.5t-49 -190.5h-100q0 98 22.5 165t67 102.5t99 50t129.5 14.5q167 0 238 -79t71 -277v-793h-74l-29 106q-67 -63 -130.5 -96t-137.5 -33q-134 0 -212.5 79t-78.5 239zM199 295 q0 -119 50 -173t146 -54q59 0 128 40t130 97v346l-286 -33q-79 -11 -123.5 -66.5t-44.5 -156.5zM406 1249l92 262h133l-146 -262h-79z" />
<glyph unicode="&#xe2;" horiz-adv-x="886" d="M96 295q0 137 66 218t196 93l295 25v162q0 152 -41.5 209t-162.5 57q-120 0 -169 -51.5t-49 -190.5h-100q0 98 22.5 165t67 102.5t99 50t129.5 14.5q167 0 238 -79t71 -277v-793h-74l-29 106q-67 -63 -130.5 -96t-137.5 -33q-134 0 -212.5 79t-78.5 239zM199 295 q0 -119 50 -173t146 -54q59 0 128 40t130 97v346l-286 -33q-79 -11 -123.5 -66.5t-44.5 -156.5zM270 1249l113 262h123l112 -262h-83l-91 170l-90 -170h-84z" />
<glyph unicode="&#xe3;" horiz-adv-x="886" d="M96 295q0 137 66 218t196 93l295 25v162q0 152 -41.5 209t-162.5 57q-120 0 -169 -51.5t-49 -190.5h-100q0 98 22.5 165t67 102.5t99 50t129.5 14.5q167 0 238 -79t71 -277v-793h-74l-29 106q-67 -63 -130.5 -96t-137.5 -33q-134 0 -212.5 79t-78.5 239zM199 295 q0 -119 50 -173t146 -54q59 0 128 40t130 97v346l-286 -33q-79 -11 -123.5 -66.5t-44.5 -156.5zM209 1276q0 188 137 188q32 0 61.5 -18.5t48 -40.5t43 -40.5t46.5 -18.5q53 0 53 104h82q0 -98 -36.5 -143t-98.5 -45q-40 0 -73 18.5t-50.5 40.5t-37.5 40.5t-38 18.5 q-31 0 -44 -25t-13 -79h-80z" />
<glyph unicode="&#xe4;" horiz-adv-x="886" d="M96 295q0 137 66 218t196 93l295 25v162q0 152 -41.5 209t-162.5 57q-120 0 -169 -51.5t-49 -190.5h-100q0 98 22.5 165t67 102.5t99 50t129.5 14.5q167 0 238 -79t71 -277v-793h-74l-29 106q-67 -63 -130.5 -96t-137.5 -33q-134 0 -212.5 79t-78.5 239zM199 295 q0 -119 50 -173t146 -54q59 0 128 40t130 97v346l-286 -33q-79 -11 -123.5 -66.5t-44.5 -156.5zM272 1264v135h127v-135h-127zM498 1264v135h127v-135h-127z" />
<glyph unicode="&#xe5;" horiz-adv-x="886" d="M96 295q0 137 66 218t196 93l295 25v162q0 152 -41.5 209t-162.5 57q-120 0 -169 -51.5t-49 -190.5h-100q0 98 22.5 165t67 102.5t99 50t129.5 14.5q167 0 238 -79t71 -277v-793h-74l-29 106q-67 -63 -130.5 -96t-137.5 -33q-134 0 -212.5 79t-78.5 239zM199 295 q0 -119 50 -173t146 -54q59 0 128 40t130 97v346l-286 -33q-79 -11 -123.5 -66.5t-44.5 -156.5zM276 1417q0 87 45.5 133.5t122.5 46.5t122.5 -46.5t45.5 -133.5q0 -89 -45 -134.5t-123 -45.5t-123 45.5t-45 134.5zM362 1417q0 -50 21.5 -77t60.5 -27t60.5 27t21.5 77 q0 48 -22 76.5t-60 28.5t-60 -28.5t-22 -76.5z" />
<glyph unicode="&#xe6;" horiz-adv-x="1419" d="M96 295q0 148 69 230.5t204 82.5h286v185q0 152 -43 209t-166 57q-119 0 -167 -53t-48 -189h-100q0 99 21.5 165.5t65.5 102t98 50t130 14.5q212 0 275 -154q75 154 283 154q86 0 143 -23.5t99 -82.5t60.5 -161.5t18.5 -258.5v-105h-565q0 -179 27 -277t80.5 -135.5 t148.5 -37.5q120 0 274 59v-102q-142 -48 -286 -48q-215 0 -297 205q-73 -205 -312 -205q-139 0 -219 79t-80 239zM199 295q0 -227 192 -227q102 0 156 34t81 131.5t27 284.5h-286q-87 0 -128.5 -54t-41.5 -169zM760 608h461q0 187 -19.5 282t-64.5 132t-133 37 q-97 0 -147.5 -37t-73.5 -133t-23 -281z" />
<glyph unicode="&#xe7;" horiz-adv-x="849" d="M96 500v127q0 156 20 258t64.5 160t106.5 81t155 23q163 0 236.5 -77.5t73.5 -254.5h-103q0 130 -44 186t-163 56q-94 0 -144 -35.5t-73.5 -128t-23.5 -268.5v-127q0 -176 23.5 -268.5t73.5 -128t144 -35.5q119 0 163 55.5t44 185.5h103q0 -169 -68 -247.5t-215 -84.5 l-16 -83q54 -9 90.5 -42.5t36.5 -99.5q0 -88 -49 -123t-142 -35h-86v72h100q40 0 62 24.5t22 61.5q0 84 -84 84h-36l28 144q-108 8 -171 56t-95.5 159.5t-32.5 304.5z" />
<glyph unicode="&#xe8;" horiz-adv-x="862" d="M96 500v127q0 156 20 258t64 160t104.5 81t151.5 23q89 0 148 -23.5t101.5 -82.5t61.5 -161.5t19 -258.5v-105h-565q0 -117 8.5 -195t25.5 -129.5t49 -78.5t71.5 -37t101.5 -10q122 0 276 59v-102q-146 -48 -289 -48q-95 0 -156.5 22t-106.5 80t-65 160.5t-20 260.5z M201 608h461q0 187 -20 282t-67 132t-139 37t-140.5 -36.5t-71.5 -133t-23 -281.5zM270 1511h133l93 -262h-80z" />
<glyph unicode="&#xe9;" horiz-adv-x="862" d="M96 500v127q0 156 20 258t64 160t104.5 81t151.5 23q89 0 148 -23.5t101.5 -82.5t61.5 -161.5t19 -258.5v-105h-565q0 -117 8.5 -195t25.5 -129.5t49 -78.5t71.5 -37t101.5 -10q122 0 276 59v-102q-146 -48 -289 -48q-95 0 -156.5 22t-106.5 80t-65 160.5t-20 260.5z M201 608h461q0 187 -20 282t-67 132t-139 37t-140.5 -36.5t-71.5 -133t-23 -281.5zM406 1249l92 262h133l-146 -262h-79z" />
<glyph unicode="&#xea;" horiz-adv-x="862" d="M96 500v127q0 156 20 258t64 160t104.5 81t151.5 23q89 0 148 -23.5t101.5 -82.5t61.5 -161.5t19 -258.5v-105h-565q0 -117 8.5 -195t25.5 -129.5t49 -78.5t71.5 -37t101.5 -10q122 0 276 59v-102q-146 -48 -289 -48q-95 0 -156.5 22t-106.5 80t-65 160.5t-20 260.5z M201 608h461q0 187 -20 282t-67 132t-139 37t-140.5 -36.5t-71.5 -133t-23 -281.5zM264 1249l113 262h123l112 -262h-84l-90 170l-90 -170h-84z" />
<glyph unicode="&#xeb;" horiz-adv-x="862" d="M96 500v127q0 156 20 258t64 160t104.5 81t151.5 23q89 0 148 -23.5t101.5 -82.5t61.5 -161.5t19 -258.5v-105h-565q0 -117 8.5 -195t25.5 -129.5t49 -78.5t71.5 -37t101.5 -10q122 0 276 59v-102q-146 -48 -289 -48q-95 0 -156.5 22t-106.5 80t-65 160.5t-20 260.5z M201 608h461q0 187 -20 282t-67 132t-139 37t-140.5 -36.5t-71.5 -133t-23 -281.5zM266 1264v135h127v-135h-127zM492 1264v135h126v-135h-126z" />
<glyph unicode="&#xec;" horiz-adv-x="401" d="M16 1511h134l92 -262h-80zM150 0h102v1126h-102v-1126z" />
<glyph unicode="&#xed;" horiz-adv-x="401" d="M150 0h102v1126h-102v-1126zM162 1249l92 262h133l-145 -262h-80z" />
<glyph unicode="&#xee;" horiz-adv-x="401" d="M27 1249l112 262h123l113 -262h-84l-90 170l-90 -170h-84zM150 0h102v1126h-102v-1126z" />
<glyph unicode="&#xef;" horiz-adv-x="401" d="M25 1264v135h127v-135h-127zM150 0h102v1126h-102v-1126zM250 1264v135h127v-135h-127z" />
<glyph unicode="&#xf0;" horiz-adv-x="894" d="M96 500v127q0 152 20.5 253.5t63.5 160.5t103 83.5t147 24.5q158 0 232 -92q-31 155 -97 270l-141 -49l-25 65l129 46q-47 68 -94 120h117q44 -59 63 -90l152 54l25 -66l-140 -49q71 -134 101 -302.5t30 -428.5v-127q0 -154 -18.5 -254t-61 -160.5t-105 -84.5t-157.5 -24 q-96 0 -159 24t-105.5 84.5t-61 160.5t-18.5 254zM201 500q0 -176 22 -267.5t72 -128t145 -36.5t144.5 36.5t71.5 128t22 267.5v127q0 176 -22 267.5t-71.5 128t-144.5 36.5t-145 -36.5t-72 -128t-22 -267.5v-127z" />
<glyph unicode="&#xf1;" horiz-adv-x="913" d="M139 0v1126h72l22 -106q149 129 263 129q102 0 162 -32.5t92 -118.5t32 -238v-760h-104v760q0 118 -20.5 183.5t-60 90.5t-108.5 25q-100 0 -245 -137v-922h-105zM233 1276q0 188 138 188q32 0 61 -18.5t47.5 -40.5t43 -40.5t46.5 -18.5q54 0 54 104h82q0 -98 -37 -143 t-99 -45q-40 0 -73 18.5t-50 40.5t-37 40.5t-38 18.5q-32 0 -45 -25t-13 -79h-80z" />
<glyph unicode="&#xf2;" horiz-adv-x="878" d="M96 500v127q0 154 18.5 254t61.5 160t106 84t158 24t157 -24t105 -84t61.5 -160t18.5 -254v-127q0 -154 -18.5 -254t-61 -160.5t-105 -84.5t-157.5 -24q-96 0 -159 24t-105.5 84.5t-61 160.5t-18.5 254zM201 500q0 -176 22 -267.5t72 -128t145 -36.5t144.5 36.5t71.5 128 t22 267.5v127q0 176 -22 267.5t-71.5 128t-144.5 36.5t-145 -36.5t-72 -128t-22 -267.5v-127zM266 1511h133l93 -262h-80z" />
<glyph unicode="&#xf3;" horiz-adv-x="878" d="M96 500v127q0 154 18.5 254t61.5 160t106 84t158 24t157 -24t105 -84t61.5 -160t18.5 -254v-127q0 -154 -18.5 -254t-61 -160.5t-105 -84.5t-157.5 -24q-96 0 -159 24t-105.5 84.5t-61 160.5t-18.5 254zM201 500q0 -176 22 -267.5t72 -128t145 -36.5t144.5 36.5t71.5 128 t22 267.5v127q0 176 -22 267.5t-71.5 128t-144.5 36.5t-145 -36.5t-72 -128t-22 -267.5v-127zM416 1249l92 262h133l-145 -262h-80z" />
<glyph unicode="&#xf4;" horiz-adv-x="878" d="M96 500v127q0 154 18.5 254t61.5 160t106 84t158 24t157 -24t105 -84t61.5 -160t18.5 -254v-127q0 -154 -18.5 -254t-61 -160.5t-105 -84.5t-157.5 -24q-96 0 -159 24t-105.5 84.5t-61 160.5t-18.5 254zM201 500q0 -176 22 -267.5t72 -128t145 -36.5t144.5 36.5t71.5 128 t22 267.5v127q0 176 -22 267.5t-71.5 128t-144.5 36.5t-145 -36.5t-72 -128t-22 -267.5v-127zM264 1249l113 262h123l112 -262h-84l-90 170l-90 -170h-84z" />
<glyph unicode="&#xf5;" horiz-adv-x="878" d="M96 500v127q0 154 18.5 254t61.5 160t106 84t158 24t157 -24t105 -84t61.5 -160t18.5 -254v-127q0 -154 -18.5 -254t-61 -160.5t-105 -84.5t-157.5 -24q-96 0 -159 24t-105.5 84.5t-61 160.5t-18.5 254zM201 500q0 -176 22 -267.5t72 -128t145 -36.5t144.5 36.5t71.5 128 t22 267.5v127q0 176 -22 267.5t-71.5 128t-144.5 36.5t-145 -36.5t-72 -128t-22 -267.5v-127zM203 1276q0 188 137 188q32 0 61.5 -18.5t48 -40.5t43 -40.5t46.5 -18.5q53 0 53 104h82q0 -98 -36.5 -143t-98.5 -45q-40 0 -73 18.5t-50.5 40.5t-37.5 40.5t-38 18.5 q-31 0 -44 -25t-13 -79h-80z" />
<glyph unicode="&#xf6;" horiz-adv-x="878" d="M96 500v127q0 154 18.5 254t61.5 160t106 84t158 24t157 -24t105 -84t61.5 -160t18.5 -254v-127q0 -154 -18.5 -254t-61 -160.5t-105 -84.5t-157.5 -24q-96 0 -159 24t-105.5 84.5t-61 160.5t-18.5 254zM201 500q0 -176 22 -267.5t72 -128t145 -36.5t144.5 36.5t71.5 128 t22 267.5v127q0 176 -22 267.5t-71.5 128t-144.5 36.5t-145 -36.5t-72 -128t-22 -267.5v-127zM266 1264v135h127v-135h-127zM492 1264v135h126v-135h-126z" />
<glyph unicode="&#xf7;" horiz-adv-x="870" d="M90 571v99h684v-99h-684zM358 178v162h150v-162h-150zM358 897v164h150v-164h-150z" />
<glyph unicode="&#xf8;" horiz-adv-x="878" d="M96 500v127q0 154 18.5 254t61.5 160t106 84t158 24q142 0 215 -59l39 81h80l-67 -139q75 -113 75 -405v-127q0 -154 -18.5 -254t-61 -160.5t-105 -84.5t-157.5 -24q-144 0 -217 56l-39 -78h-80l64 137q-72 113 -72 408zM201 500q0 -205 26 -291l381 788q-51 62 -168 62 q-95 0 -145 -36.5t-72 -128t-22 -267.5v-127zM268 129q53 -61 172 -61q95 0 144.5 36.5t71.5 128t22 267.5v127q0 189 -27 288z" />
<glyph unicode="&#xf9;" horiz-adv-x="905" d="M131 367v759h102v-759q0 -117 22 -183t62.5 -91t110.5 -25q54 0 119.5 39t124.5 98v921h102v-1126h-74l-20 104q-127 -127 -258 -127q-75 0 -126.5 17.5t-90 61t-56.5 120.5t-18 191zM274 1511h134l92 -262h-80z" />
<glyph unicode="&#xfa;" horiz-adv-x="905" d="M131 367v759h102v-759q0 -117 22 -183t62.5 -91t110.5 -25q54 0 119.5 39t124.5 98v921h102v-1126h-74l-20 104q-127 -127 -258 -127q-75 0 -126.5 17.5t-90 61t-56.5 120.5t-18 191zM422 1249l92 262h133l-145 -262h-80z" />
<glyph unicode="&#xfb;" horiz-adv-x="905" d="M131 367v759h102v-759q0 -117 22 -183t62.5 -91t110.5 -25q54 0 119.5 39t124.5 98v921h102v-1126h-74l-20 104q-127 -127 -258 -127q-75 0 -126.5 17.5t-90 61t-56.5 120.5t-18 191zM283 1249l112 262h123l113 -262h-84l-90 170l-90 -170h-84z" />
<glyph unicode="&#xfc;" horiz-adv-x="905" d="M131 367v759h102v-759q0 -117 22 -183t62.5 -91t110.5 -25q54 0 119.5 39t124.5 98v921h102v-1126h-74l-20 104q-127 -127 -258 -127q-75 0 -126.5 17.5t-90 61t-56.5 120.5t-18 191zM281 1264v135h127v-135h-127zM506 1264v135h127v-135h-127z" />
<glyph unicode="&#xfd;" horiz-adv-x="778" d="M29 1126h112l248 -966l246 966h113l-349 -1296q-35 -130 -89.5 -183t-151.5 -53q-63 0 -101 21v102q51 -30 101 -30q51 0 86.5 38t58.5 138l35 139zM358 1249l93 262h133l-146 -262h-80z" />
<glyph unicode="&#xfe;" horiz-adv-x="927" d="M145 -383v1892h105v-483q149 123 254 123q64 0 112 -14t88.5 -49.5t66.5 -94t40 -149.5t14 -215v-127q0 -154 -21 -257.5t-64 -161t-99.5 -81t-136.5 -23.5q-107 0 -254 125v-485h-105zM250 203q64 -60 130.5 -97.5t117.5 -37.5q84 0 130.5 36t69.5 129.5t23 266.5v127 q0 173 -23 266.5t-69.5 129.5t-130.5 36q-51 0 -117.5 -37.5t-130.5 -97.5v-721z" />
<glyph unicode="&#xff;" horiz-adv-x="778" d="M29 1126h112l248 -966l246 966h113l-349 -1296q-35 -130 -89.5 -183t-151.5 -53q-63 0 -101 21v102q51 -30 101 -30q51 0 86.5 38t58.5 138l35 139zM219 1264v135h127v-135h-127zM444 1264v135h127v-135h-127z" />
<glyph unicode="&#x100;" horiz-adv-x="847" d="M33 0l327 1464h127l326 -1464h-111l-88 401h-383l-88 -401h-110zM225 1622v90h402v-90h-402zM250 496h346l-115 546q-47 225 -57 310q-13 -86 -59 -310z" />
<glyph unicode="&#x101;" horiz-adv-x="886" d="M96 295q0 137 66 218t196 93l295 25v162q0 152 -41.5 209t-162.5 57q-120 0 -169 -51.5t-49 -190.5h-100q0 98 22.5 165t67 102.5t99 50t129.5 14.5q167 0 238 -79t71 -277v-793h-74l-29 106q-67 -63 -130.5 -96t-137.5 -33q-134 0 -212.5 79t-78.5 239zM199 295 q0 -119 50 -173t146 -54q59 0 128 40t130 97v346l-286 -33q-79 -11 -123.5 -66.5t-44.5 -156.5zM248 1284v90h401v-90h-401z" />
<glyph unicode="&#x102;" horiz-adv-x="847" d="M33 0l327 1464h127l326 -1464h-111l-88 401h-383l-88 -401h-110zM225 1843h90q0 -184 109 -184q111 0 111 184h90q0 -131 -51 -199.5t-150 -68.5q-98 0 -148.5 68.5t-50.5 199.5zM250 496h346l-115 546q-47 225 -57 310q-13 -86 -59 -310z" />
<glyph unicode="&#x103;" horiz-adv-x="886" d="M96 295q0 137 66 218t196 93l295 25v162q0 152 -41.5 209t-162.5 57q-120 0 -169 -51.5t-49 -190.5h-100q0 98 22.5 165t67 102.5t99 50t129.5 14.5q167 0 238 -79t71 -277v-793h-74l-29 106q-67 -63 -130.5 -96t-137.5 -33q-134 0 -212.5 79t-78.5 239zM199 295 q0 -119 50 -173t146 -54q59 0 128 40t130 97v346l-286 -33q-79 -11 -123.5 -66.5t-44.5 -156.5zM246 1505h90q0 -184 108 -184q111 0 111 184h90q0 -131 -51 -199.5t-150 -68.5q-98 0 -148 68.5t-50 199.5z" />
<glyph unicode="&#x104;" horiz-adv-x="847" d="M33 0l327 1464h127l326 -1464q-117 -132 -117 -221q0 -35 17.5 -51.5t42.5 -16.5h57v-94h-72q-72 0 -110.5 35t-38.5 104q0 103 115 228l-93 417h-383l-88 -401h-110zM250 496h346l-115 546q-47 225 -57 310q-13 -86 -59 -310z" />
<glyph unicode="&#x105;" horiz-adv-x="886" d="M96 295q0 137 66 218t196 93l295 25v162q0 152 -41.5 209t-162.5 57q-120 0 -169 -51.5t-49 -190.5h-100q0 98 22.5 165t67 102.5t99 50t129.5 14.5q167 0 238 -79t71 -277v-793q-119 -128 -119 -223q0 -38 19 -55t47 -17h53v-88h-68q-68 0 -105.5 36.5t-37.5 104.5 q0 117 135 252l-27 96q-67 -63 -130.5 -96t-137.5 -33q-134 0 -212.5 79t-78.5 239zM199 295q0 -119 50 -173t146 -54q59 0 128 40t130 97v346l-286 -33q-79 -11 -123.5 -66.5t-44.5 -156.5z" />
<glyph unicode="&#x106;" horiz-adv-x="923" d="M113 510v448q0 291 82 410t282 119q181 0 263.5 -92.5t82.5 -311.5h-106q0 174 -55.5 242t-184.5 68q-98 0 -152.5 -40t-79 -132.5t-24.5 -259.5v-453q0 -170 23.5 -262.5t78 -133t154.5 -40.5q129 0 184.5 67.5t55.5 241.5h106q0 -219 -82.5 -311.5t-263.5 -92.5 q-99 0 -165.5 25t-112 86t-66 164t-20.5 258zM451 1587l92 262h133l-146 -262h-79z" />
<glyph unicode="&#x107;" horiz-adv-x="849" d="M96 500v127q0 156 20 258t64.5 160t106.5 81t155 23q163 0 236.5 -77.5t73.5 -254.5h-103q0 130 -44 186t-163 56q-94 0 -144 -35.5t-73.5 -128t-23.5 -268.5v-127q0 -176 23.5 -268.5t73.5 -128t144 -35.5q119 0 163 55.5t44 185.5h103q0 -177 -73.5 -254.5 t-236.5 -77.5q-93 0 -155 23t-106.5 81.5t-64.5 160.5t-20 258zM403 1249l93 262h133l-146 -262h-80z" />
<glyph unicode="&#x108;" horiz-adv-x="923" d="M113 510v448q0 291 82 410t282 119q181 0 263.5 -92.5t82.5 -311.5h-106q0 174 -55.5 242t-184.5 68q-98 0 -152.5 -40t-79 -132.5t-24.5 -259.5v-453q0 -170 23.5 -262.5t78 -133t154.5 -40.5q129 0 184.5 67.5t55.5 241.5h106q0 -219 -82.5 -311.5t-263.5 -92.5 q-99 0 -165.5 25t-112 86t-66 164t-20.5 258zM309 1587l113 262h123l112 -262h-84l-90 170l-90 -170h-84z" />
<glyph unicode="&#x109;" horiz-adv-x="849" d="M96 500v127q0 156 20 258t64.5 160t106.5 81t155 23q163 0 236.5 -77.5t73.5 -254.5h-103q0 130 -44 186t-163 56q-94 0 -144 -35.5t-73.5 -128t-23.5 -268.5v-127q0 -176 23.5 -268.5t73.5 -128t144 -35.5q119 0 163 55.5t44 185.5h103q0 -177 -73.5 -254.5 t-236.5 -77.5q-93 0 -155 23t-106.5 81.5t-64.5 160.5t-20 258zM266 1249l113 262h123l112 -262h-84l-90 170l-90 -170h-84z" />
<glyph unicode="&#x10a;" horiz-adv-x="923" d="M113 510v448q0 291 82 410t282 119q181 0 263.5 -92.5t82.5 -311.5h-106q0 174 -55.5 242t-184.5 68q-98 0 -152.5 -40t-79 -132.5t-24.5 -259.5v-453q0 -170 23.5 -262.5t78 -133t154.5 -40.5q129 0 184.5 67.5t55.5 241.5h106q0 -219 -82.5 -311.5t-263.5 -92.5 q-99 0 -165.5 25t-112 86t-66 164t-20.5 258zM414 1599v140h135v-140h-135z" />
<glyph unicode="&#x10b;" horiz-adv-x="849" d="M96 500v127q0 156 20 258t64.5 160t106.5 81t155 23q163 0 236.5 -77.5t73.5 -254.5h-103q0 130 -44 186t-163 56q-94 0 -144 -35.5t-73.5 -128t-23.5 -268.5v-127q0 -176 23.5 -268.5t73.5 -128t144 -35.5q119 0 163 55.5t44 185.5h103q0 -177 -73.5 -254.5 t-236.5 -77.5q-93 0 -155 23t-106.5 81.5t-64.5 160.5t-20 258zM375 1262v139h135v-139h-135z" />
<glyph unicode="&#x10c;" horiz-adv-x="923" d="M113 510v448q0 291 82 410t282 119q181 0 263.5 -92.5t82.5 -311.5h-106q0 174 -55.5 242t-184.5 68q-98 0 -152.5 -40t-79 -132.5t-24.5 -259.5v-453q0 -170 23.5 -262.5t78 -133t154.5 -40.5q129 0 184.5 67.5t55.5 241.5h106q0 -219 -82.5 -311.5t-263.5 -92.5 q-99 0 -165.5 25t-112 86t-66 164t-20.5 258zM309 1849h82l90 -168l90 168h84l-112 -262h-121z" />
<glyph unicode="&#x10d;" horiz-adv-x="849" d="M96 500v127q0 156 20 258t64.5 160t106.5 81t155 23q163 0 236.5 -77.5t73.5 -254.5h-103q0 130 -44 186t-163 56q-94 0 -144 -35.5t-73.5 -128t-23.5 -268.5v-127q0 -176 23.5 -268.5t73.5 -128t144 -35.5q119 0 163 55.5t44 185.5h103q0 -177 -73.5 -254.5 t-236.5 -77.5q-93 0 -155 23t-106.5 81.5t-64.5 160.5t-20 258zM264 1511h82l90 -168l90 168h84l-112 -262h-121z" />
<glyph unicode="&#x10e;" horiz-adv-x="983" d="M158 0v1464h313q79 0 138.5 -14t110.5 -49.5t83 -94t49.5 -149.5t17.5 -215v-420q0 -124 -17.5 -215t-49.5 -149.5t-83 -94t-110.5 -49.5t-138.5 -14h-313zM266 94h205q72 0 123 18.5t91 65t59.5 132t19.5 212.5v420q0 127 -19.5 212.5t-59.5 132t-91 65t-123 18.5h-205 v-1276zM301 1849h82l90 -168l90 168h84l-112 -262h-121z" />
<glyph unicode="&#x10f;" horiz-adv-x="1005" d="M96 500v127q0 124 14.5 215t40 149.5t66.5 94t89 49.5t112 14q103 0 254 -121v481h102v-1509h-72l-22 106q-63 -54 -134.5 -91.5t-127.5 -37.5q-64 0 -112 14t-89 49.5t-66.5 94.5t-40 150t-14.5 215zM201 500q0 -173 23 -266.5t69.5 -129.5t130.5 -36q100 0 248 137v717 q-63 58 -131 97.5t-117 39.5q-84 0 -130.5 -36t-69.5 -129.5t-23 -266.5v-127zM891 1073v434h115l-45 -434h-70z" />
<glyph unicode="&#x110;" horiz-adv-x="983" d="M33 700v86h125v678h313q79 0 138.5 -14t110.5 -49.5t83 -94t49.5 -149.5t17.5 -215v-420q0 -124 -17.5 -215t-49.5 -149.5t-83 -94t-110.5 -49.5t-138.5 -14h-313v700h-125zM266 94h205q72 0 123 18.5t91 65t59.5 132t19.5 212.5v420q0 127 -19.5 212.5t-59.5 132t-91 65 t-123 18.5h-205v-584h207v-86h-207v-606z" />
<glyph unicode="&#x111;" horiz-adv-x="915" d="M96 500v127q0 124 14.5 215t40 149.5t66.5 94t89 49.5t112 14q103 0 254 -121v270h-187v80h187v131h102v-131h113v-80h-113v-1298h-72l-22 106q-63 -54 -134.5 -91.5t-127.5 -37.5q-64 0 -112 14t-89 49.5t-66.5 94.5t-40 150t-14.5 215zM201 500q0 -173 23 -266.5 t69.5 -129.5t130.5 -36q100 0 248 137v717q-63 58 -131 97.5t-117 39.5q-84 0 -130.5 -36t-69.5 -129.5t-23 -266.5v-127z" />
<glyph unicode="&#x112;" horiz-adv-x="876" d="M158 0v1464h606v-94h-498v-582h436v-90h-436v-604h498v-94h-606zM276 1622v90h402v-90h-402z" />
<glyph unicode="&#x113;" horiz-adv-x="862" d="M96 500v127q0 156 20 258t64 160t104.5 81t151.5 23q89 0 148 -23.5t101.5 -82.5t61.5 -161.5t19 -258.5v-105h-565q0 -117 8.5 -195t25.5 -129.5t49 -78.5t71.5 -37t101.5 -10q122 0 276 59v-102q-146 -48 -289 -48q-95 0 -156.5 22t-106.5 80t-65 160.5t-20 260.5z M201 608h461q0 187 -20 282t-67 132t-139 37t-140.5 -36.5t-71.5 -133t-23 -281.5zM236 1284v90h401v-90h-401z" />
<glyph unicode="&#x114;" horiz-adv-x="876" d="M158 0v1464h606v-94h-498v-582h436v-90h-436v-604h498v-94h-606zM279 1843h90q0 -184 108 -184q111 0 111 184h90q0 -131 -51 -199.5t-150 -68.5q-98 0 -148 68.5t-50 199.5z" />
<glyph unicode="&#x115;" horiz-adv-x="862" d="M96 500v127q0 156 20 258t64 160t104.5 81t151.5 23q89 0 148 -23.5t101.5 -82.5t61.5 -161.5t19 -258.5v-105h-565q0 -117 8.5 -195t25.5 -129.5t49 -78.5t71.5 -37t101.5 -10q122 0 276 59v-102q-146 -48 -289 -48q-95 0 -156.5 22t-106.5 80t-65 160.5t-20 260.5z M201 608h461q0 187 -20 282t-67 132t-139 37t-140.5 -36.5t-71.5 -133t-23 -281.5zM238 1505h90q0 -184 108 -184q111 0 111 184h90q0 -131 -51 -199.5t-150 -68.5q-98 0 -148 68.5t-50 199.5z" />
<glyph unicode="&#x116;" horiz-adv-x="876" d="M158 0v1464h606v-94h-498v-582h436v-90h-436v-604h498v-94h-606zM403 1599v140h136v-140h-136z" />
<glyph unicode="&#x117;" horiz-adv-x="862" d="M96 500v127q0 156 20 258t64 160t104.5 81t151.5 23q89 0 148 -23.5t101.5 -82.5t61.5 -161.5t19 -258.5v-105h-565q0 -117 8.5 -195t25.5 -129.5t49 -78.5t71.5 -37t101.5 -10q122 0 276 59v-102q-146 -48 -289 -48q-95 0 -156.5 22t-106.5 80t-65 160.5t-20 260.5z M201 608h461q0 187 -20 282t-67 132t-139 37t-140.5 -36.5t-71.5 -133t-23 -281.5zM369 1262v139h135v-139h-135z" />
<glyph unicode="&#x118;" horiz-adv-x="876" d="M158 0v1464h606v-94h-498v-582h436v-90h-436v-604h498v-94q-117 -129 -117 -221q0 -35 17 -51.5t41 -16.5h59v-94h-72q-149 0 -149 139q0 113 131 244h-516z" />
<glyph unicode="&#x119;" horiz-adv-x="862" d="M96 500v127q0 156 20 258t64 160t104.5 81t151.5 23q89 0 148 -23.5t101.5 -82.5t61.5 -161.5t19 -258.5v-105h-565q0 -117 8.5 -195t25.5 -129.5t49 -78.5t71.5 -37t101.5 -10q122 0 276 59v-102q-119 -128 -119 -224q0 -71 66 -71h53v-88h-69q-68 0 -105 36t-37 105 q0 103 94 211q-87 -17 -172 -17q-95 0 -156.5 22t-106.5 80t-65 160.5t-20 260.5zM201 608h461q0 187 -20 282t-67 132t-139 37t-140.5 -36.5t-71.5 -133t-23 -281.5z" />
<glyph unicode="&#x11a;" horiz-adv-x="876" d="M158 0v1464h606v-94h-498v-582h436v-90h-436v-604h498v-94h-606zM301 1849h82l90 -168l90 168h84l-112 -262h-121z" />
<glyph unicode="&#x11b;" horiz-adv-x="862" d="M96 500v127q0 156 20 258t64 160t104.5 81t151.5 23q89 0 148 -23.5t101.5 -82.5t61.5 -161.5t19 -258.5v-105h-565q0 -117 8.5 -195t25.5 -129.5t49 -78.5t71.5 -37t101.5 -10q122 0 276 59v-102q-146 -48 -289 -48q-95 0 -156.5 22t-106.5 80t-65 160.5t-20 260.5z M201 608h461q0 187 -20 282t-67 132t-139 37t-140.5 -36.5t-71.5 -133t-23 -281.5zM266 1511h82l90 -168l90 168h84l-112 -262h-121z" />
<glyph unicode="&#x11c;" horiz-adv-x="972" d="M113 508v453q0 288 82.5 407t281.5 119q181 0 264.5 -93t83.5 -311h-108q0 174 -55.5 242t-184.5 68q-98 0 -152.5 -40t-79 -132.5t-24.5 -259.5v-453q0 -170 23.5 -262.5t78 -133t154.5 -40.5q131 0 193.5 81t62.5 220v325h-244v90h349v-788h-72l-21 104 q-94 -127 -268 -127q-132 0 -209.5 48t-116 164.5t-38.5 318.5zM305 1587l113 262h123l112 -262h-84l-90 170l-90 -170h-84z" />
<glyph unicode="&#x11d;" horiz-adv-x="915" d="M96 522v105q0 124 14.5 215t40.5 149.5t67 94t89.5 49.5t112.5 14q59 0 128.5 -37t129.5 -92l22 106h74v-1128q0 -221 -65 -312.5t-238 -91.5q-148 0 -266 48v106q139 -61 266 -61q79 0 121 26.5t61 93t19 191.5v123q-60 -51 -128 -86t-124 -35q-64 0 -112.5 14 t-89.5 49.5t-67 94t-40.5 149.5t-14.5 215zM201 522q0 -172 23.5 -265.5t70 -129t131.5 -35.5q49 0 117 39.5t129 97.5v693q-62 57 -130 97t-116 40q-85 0 -131.5 -36t-70 -129.5t-23.5 -266.5v-105zM274 1249l113 262h123l113 -262h-84l-90 170l-91 -170h-84z" />
<glyph unicode="&#x11e;" horiz-adv-x="972" d="M113 508v453q0 288 82.5 407t281.5 119q181 0 264.5 -93t83.5 -311h-108q0 174 -55.5 242t-184.5 68q-98 0 -152.5 -40t-79 -132.5t-24.5 -259.5v-453q0 -170 23.5 -262.5t78 -133t154.5 -40.5q131 0 193.5 81t62.5 220v325h-244v90h349v-788h-72l-21 104 q-94 -127 -268 -127q-132 0 -209.5 48t-116 164.5t-38.5 318.5zM274 1843h91q0 -184 108 -184q111 0 111 184h90q0 -131 -51 -199.5t-150 -68.5q-98 0 -148.5 68.5t-50.5 199.5z" />
<glyph unicode="&#x11f;" horiz-adv-x="915" d="M96 522v105q0 124 14.5 215t40.5 149.5t67 94t89.5 49.5t112.5 14q59 0 128.5 -37t129.5 -92l22 106h74v-1128q0 -221 -65 -312.5t-238 -91.5q-148 0 -266 48v106q139 -61 266 -61q79 0 121 26.5t61 93t19 191.5v123q-60 -51 -128 -86t-124 -35q-64 0 -112.5 14 t-89.5 49.5t-67 94t-40.5 149.5t-14.5 215zM201 522q0 -172 23.5 -265.5t70 -129t131.5 -35.5q49 0 117 39.5t129 97.5v693q-62 57 -130 97t-116 40q-85 0 -131.5 -36t-70 -129.5t-23.5 -266.5v-105zM250 1505h90q0 -184 109 -184q110 0 110 184h90q0 -131 -50.5 -199.5 t-149.5 -68.5q-98 0 -148.5 68.5t-50.5 199.5z" />
<glyph unicode="&#x120;" horiz-adv-x="972" d="M113 508v453q0 288 82.5 407t281.5 119q181 0 264.5 -93t83.5 -311h-108q0 174 -55.5 242t-184.5 68q-98 0 -152.5 -40t-79 -132.5t-24.5 -259.5v-453q0 -170 23.5 -262.5t78 -133t154.5 -40.5q131 0 193.5 81t62.5 220v325h-244v90h349v-788h-72l-21 104 q-94 -127 -268 -127q-132 0 -209.5 48t-116 164.5t-38.5 318.5zM414 1599v140h135v-140h-135z" />
<glyph unicode="&#x121;" horiz-adv-x="915" d="M96 522v105q0 124 14.5 215t40.5 149.5t67 94t89.5 49.5t112.5 14q59 0 128.5 -37t129.5 -92l22 106h74v-1128q0 -221 -65 -312.5t-238 -91.5q-148 0 -266 48v106q139 -61 266 -61q79 0 121 26.5t61 93t19 191.5v123q-60 -51 -128 -86t-124 -35q-64 0 -112.5 14 t-89.5 49.5t-67 94t-40.5 149.5t-14.5 215zM201 522q0 -172 23.5 -265.5t70 -129t131.5 -35.5q49 0 117 39.5t129 97.5v693q-62 57 -130 97t-116 40q-85 0 -131.5 -36t-70 -129.5t-23.5 -266.5v-105zM377 1262v139h135v-139h-135z" />
<glyph unicode="&#x122;" horiz-adv-x="972" d="M113 508v453q0 288 82.5 407t281.5 119q181 0 264.5 -93t83.5 -311h-108q0 174 -55.5 242t-184.5 68q-98 0 -152.5 -40t-79 -132.5t-24.5 -259.5v-453q0 -170 23.5 -262.5t78 -133t154.5 -40.5q131 0 193.5 81t62.5 220v325h-244v90h349v-788h-72l-21 104 q-94 -127 -268 -127q-132 0 -209.5 48t-116 164.5t-38.5 318.5zM356 -428l58 297h125l-107 -297h-76z" />
<glyph unicode="&#x123;" horiz-adv-x="915" d="M96 522v105q0 124 14.5 215t40.5 149.5t67 94t89.5 49.5t112.5 14q59 0 128.5 -37t129.5 -92l22 106h74v-1128q0 -221 -65 -312.5t-238 -91.5q-148 0 -266 48v106q139 -61 266 -61q79 0 121 26.5t61 93t19 191.5v123q-60 -51 -128 -86t-124 -35q-64 0 -112.5 14 t-89.5 49.5t-67 94t-40.5 149.5t-14.5 215zM201 522q0 -172 23.5 -265.5t70 -129t131.5 -35.5q49 0 117 39.5t129 97.5v693q-62 57 -130 97t-116 40q-85 0 -131.5 -36t-70 -129.5t-23.5 -266.5v-105zM369 1257l106 297h76l-57 -297h-125z" />
<glyph unicode="&#x124;" horiz-adv-x="1007" d="M158 0v1464h108v-676h475v676h109v-1464h-109v698h-475v-698h-108zM328 1587l112 262h123l113 -262h-84l-90 170l-90 -170h-84z" />
<glyph unicode="&#x125;" horiz-adv-x="909" d="M16 1595l113 263h123l113 -263h-84l-91 170l-90 -170h-84zM139 0v1509h105v-483q133 123 252 123q102 0 162 -32.5t92 -118.5t32 -238v-760h-104v760q0 118 -20.5 183.5t-60 90.5t-108.5 25q-100 0 -245 -137v-922h-105z" />
<glyph unicode="&#x126;" horiz-adv-x="1007" d="M45 1124v72h113v268h108v-268h475v268h109v-268h113v-72h-113v-1124h-109v698h-475v-698h-108v1124h-113zM266 788h475v336h-475v-336z" />
<glyph unicode="&#x127;" horiz-adv-x="913" d="M139 0v1509h105v-131h481v-78h-481v-274q133 123 252 123q102 0 162 -32.5t92 -118.5t32 -238v-760h-104v760q0 118 -20.5 183.5t-60 90.5t-108.5 25q-100 0 -245 -137v-922h-105z" />
<glyph unicode="&#x128;" horiz-adv-x="423" d="M-23 1614q0 188 138 188q26 0 49.5 -12.5t41.5 -30t34.5 -34.5t35 -29.5t37.5 -12.5q54 0 54 105h82q0 -98 -37 -143.5t-99 -45.5q-33 0 -60.5 12.5t-45 29.5t-32.5 34.5t-30 30t-30 12.5q-32 0 -45 -25t-13 -79h-80zM158 0v1464h108v-1464h-108z" />
<glyph unicode="&#x129;" horiz-adv-x="401" d="M-33 1276q0 188 137 188q32 0 61.5 -18.5t48 -40.5t43 -40.5t46.5 -18.5q53 0 53 104h82q0 -98 -36.5 -143t-98.5 -45q-40 0 -73 18.5t-50.5 40.5t-37.5 40.5t-38 18.5q-31 0 -44 -25t-13 -79h-80zM150 0h102v1126h-102v-1126z" />
<glyph unicode="&#x12a;" horiz-adv-x="423" d="M10 1622v90h402v-90h-402zM158 0v1464h108v-1464h-108z" />
<glyph unicode="&#x12b;" horiz-adv-x="401" d="M0 1284v90h401v-90h-401zM150 0h102v1126h-102v-1126z" />
<glyph unicode="&#x12c;" horiz-adv-x="423" d="M10 1843h90q0 -184 109 -184q110 0 110 184h91q0 -131 -51 -199.5t-150 -68.5q-98 0 -148.5 68.5t-50.5 199.5zM156 0v1464h108v-1464h-108z" />
<glyph unicode="&#x12d;" horiz-adv-x="401" d="M2 1505h90q0 -184 109 -184q110 0 110 184h90q0 -131 -50.5 -199.5t-149.5 -68.5q-98 0 -148.5 68.5t-50.5 199.5zM150 0h102v1126h-102v-1126z" />
<glyph unicode="&#x12e;" horiz-adv-x="423" d="M45 -244q0 110 113 226v1482h108v-1464q-116 -128 -116 -221q0 -35 17 -51.5t40 -16.5h59v-94h-71q-150 0 -150 139z" />
<glyph unicode="&#x12f;" horiz-adv-x="401" d="M43 -242q0 108 107 224v1144h102v-1126q-117 -129 -117 -223q0 -72 66 -72h51v-88h-68q-68 0 -104.5 36t-36.5 105zM137 1374v135h127v-135h-127z" />
<glyph unicode="&#x130;" horiz-adv-x="423" d="M145 1599v140h136v-140h-136zM158 0v1464h108v-1464h-108z" />
<glyph unicode="&#x131;" horiz-adv-x="401" d="M150 0v1126h102v-1126h-102z" />
<glyph unicode="&#x134;" horiz-adv-x="659" d="M78 2v104q98 -34 184 -34q72 0 102.5 44.5t30.5 164.5v1089h-227v94h334v-1183q0 -157 -54 -230.5t-184 -73.5q-107 0 -186 25zM158 1587l112 262h123l113 -262h-84l-90 170l-90 -170h-84z" />
<glyph unicode="&#x135;" horiz-adv-x="395" d="M-61 -283q68 -30 118 -30q45 0 64.5 37.5t19.5 123.5v1278h105v-1276q0 -131 -42.5 -193.5t-140.5 -62.5q-72 0 -124 25v98zM25 1249l112 262h123l113 -262h-84l-90 170l-90 -170h-84z" />
<glyph unicode="&#x136;" horiz-adv-x="845" d="M158 0v1464h108v-663l404 663h121l-443 -706l453 -758h-123l-412 702v-702h-108zM336 -428l57 297h125l-106 -297h-76z" />
<glyph unicode="&#x137;" horiz-adv-x="772" d="M139 0v1509h105v-868l336 485h120l-381 -532q84 -116 418 -594h-127l-366 543v-543h-105zM287 -428l57 297h125l-107 -297h-75z" />
<glyph unicode="&#x138;" horiz-adv-x="772" d="M139 0v1126h105v-485l336 485h120l-381 -532q84 -116 418 -594h-127l-366 543v-543h-105z" />
<glyph unicode="&#x139;" horiz-adv-x="735" d="M158 0v1464h108v-1370h402v-94h-510zM178 1587l92 262h133l-145 -262h-80z" />
<glyph unicode="&#x13a;" horiz-adv-x="376" d="M139 0v1509h105v-1509h-105zM154 1632l92 262h133l-146 -262h-79z" />
<glyph unicode="&#x13b;" horiz-adv-x="735" d="M158 0v1464h108v-1370h402v-94h-510zM299 -428l57 297h125l-106 -297h-76z" />
<glyph unicode="&#x13c;" horiz-adv-x="380" d="M70 -428l57 297h125l-107 -297h-75zM135 0v1509h105v-1509h-105z" />
<glyph unicode="&#x13d;" horiz-adv-x="735" d="M158 0v1464h108v-1370h402v-94h-510zM389 1073v434h115l-45 -434h-70z" />
<glyph unicode="&#x13e;" horiz-adv-x="487" d="M137 0v1509h105v-1509h-105zM373 1073v434h114l-45 -434h-69z" />
<glyph unicode="&#x13f;" horiz-adv-x="735" d="M158 0v1464h108v-1370h402v-94h-510zM403 659v164h152v-164h-152z" />
<glyph unicode="&#x140;" horiz-adv-x="581" d="M139 0v1509h105v-1509h-105zM385 662v163h152v-163h-152z" />
<glyph unicode="&#x141;" horiz-adv-x="735" d="M47 580v90l111 47v747h108v-702l189 80v-90l-189 -80v-578h402v-94h-510v627z" />
<glyph unicode="&#x142;" horiz-adv-x="425" d="M23 573v91l137 61v784h104v-737l139 64v-91l-139 -63v-682h-104v635z" />
<glyph unicode="&#x143;" horiz-adv-x="1026" d="M158 0v1464h127l417 -1091q30 -85 66 -199q-6 82 -6 207v1083h106v-1464h-127l-419 1092q-43 122 -66 198q8 -79 8 -205v-1085h-106zM475 1587l92 262h133l-145 -262h-80z" />
<glyph unicode="&#x144;" horiz-adv-x="913" d="M139 0v1126h72l22 -106q149 129 263 129q102 0 162 -32.5t92 -118.5t32 -238v-760h-104v760q0 118 -20.5 183.5t-60 90.5t-108.5 25q-100 0 -245 -137v-922h-105zM442 1249l93 262h133l-146 -262h-80z" />
<glyph unicode="&#x145;" horiz-adv-x="1026" d="M158 0v1464h127l417 -1091q30 -85 66 -199q-6 82 -6 207v1083h106v-1464h-127l-419 1092q-43 122 -66 198q8 -79 8 -205v-1085h-106zM424 -428l57 297h125l-106 -297h-76z" />
<glyph unicode="&#x146;" horiz-adv-x="913" d="M139 0v1126h72l22 -106q149 129 263 129q102 0 162 -32.5t92 -118.5t32 -238v-760h-104v760q0 118 -20.5 183.5t-60 90.5t-108.5 25q-100 0 -245 -137v-922h-105zM354 -428l58 297h125l-107 -297h-76z" />
<glyph unicode="&#x147;" horiz-adv-x="1026" d="M158 0v1464h127l417 -1091q30 -85 66 -199q-6 82 -6 207v1083h106v-1464h-127l-419 1092q-43 122 -66 198q8 -79 8 -205v-1085h-106zM342 1849h82l90 -168l90 168h84l-113 -262h-120z" />
<glyph unicode="&#x148;" horiz-adv-x="913" d="M139 0v1126h72l22 -106q149 129 263 129q102 0 162 -32.5t92 -118.5t32 -238v-760h-104v760q0 118 -20.5 183.5t-60 90.5t-108.5 25q-100 0 -245 -137v-922h-105zM293 1511h82l90 -168l90 168h84l-113 -262h-120z" />
<glyph unicode="&#x14a;" horiz-adv-x="1026" d="M158 0v1464h127l417 -1091q30 -85 66 -199q-6 82 -6 207v1083h106v-1566q0 -157 -54.5 -230.5t-184.5 -73.5q-109 0 -185 25v105q100 -35 183 -35q72 0 102.5 44.5t30.5 164.5v55l-438 1139q-43 122 -66 198q8 -79 8 -205v-1085h-106z" />
<glyph unicode="&#x14b;" horiz-adv-x="913" d="M139 0v1126h72l22 -108q147 131 263 131q102 0 162 -32.5t92 -118.5t32 -238v-910q0 -131 -42.5 -193.5t-139.5 -62.5q-73 0 -125 25v98q68 -30 117 -30q47 0 66.5 37.5t19.5 123.5v912q0 118 -20.5 183.5t-60 90.5t-108.5 25q-100 0 -245 -137v-922h-105z" />
<glyph unicode="&#x14c;" d="M113 508v450q0 153 21.5 256t68.5 163t112.5 85t161.5 25t161.5 -25t112.5 -85t69 -163t22 -256v-450q0 -154 -22 -257.5t-69 -163.5t-112.5 -85t-161.5 -25t-161.5 25t-112.5 85t-68.5 163.5t-21.5 257.5zM221 508q0 -173 27 -268t80.5 -131.5t148.5 -36.5t149 36 t81.5 131.5t27.5 268.5v450q0 172 -27.5 267t-81.5 131.5t-149 36.5t-148.5 -36.5t-80.5 -131.5t-27 -267v-450zM283 1622v90h401v-90h-401z" />
<glyph unicode="&#x14d;" horiz-adv-x="878" d="M96 500v127q0 154 18.5 254t61.5 160t106 84t158 24t157 -24t105 -84t61.5 -160t18.5 -254v-127q0 -154 -18.5 -254t-61 -160.5t-105 -84.5t-157.5 -24q-96 0 -159 24t-105.5 84.5t-61 160.5t-18.5 254zM201 500q0 -176 22 -267.5t72 -128t145 -36.5t144.5 36.5t71.5 128 t22 267.5v127q0 176 -22 267.5t-71.5 128t-144.5 36.5t-145 -36.5t-72 -128t-22 -267.5v-127zM238 1284v90h401v-90h-401z" />
<glyph unicode="&#x14e;" d="M113 508v450q0 153 21.5 256t68.5 163t112.5 85t161.5 25t161.5 -25t112.5 -85t69 -163t22 -256v-450q0 -154 -22 -257.5t-69 -163.5t-112.5 -85t-161.5 -25t-161.5 25t-112.5 85t-68.5 163.5t-21.5 257.5zM221 508q0 -173 27 -268t80.5 -131.5t148.5 -36.5t149 36 t81.5 131.5t27.5 268.5v450q0 172 -27.5 267t-81.5 131.5t-149 36.5t-148.5 -36.5t-80.5 -131.5t-27 -267v-450zM281 1843h90q0 -184 108 -184q111 0 111 184h90q0 -131 -51 -199.5t-150 -68.5q-98 0 -148 68.5t-50 199.5z" />
<glyph unicode="&#x14f;" horiz-adv-x="878" d="M96 500v127q0 154 18.5 254t61.5 160t106 84t158 24t157 -24t105 -84t61.5 -160t18.5 -254v-127q0 -154 -18.5 -254t-61 -160.5t-105 -84.5t-157.5 -24q-96 0 -159 24t-105.5 84.5t-61 160.5t-18.5 254zM201 500q0 -176 22 -267.5t72 -128t145 -36.5t144.5 36.5t71.5 128 t22 267.5v127q0 176 -22 267.5t-71.5 128t-144.5 36.5t-145 -36.5t-72 -128t-22 -267.5v-127zM238 1505h90q0 -184 108 -184q111 0 111 184h90q0 -131 -51 -199.5t-150 -68.5q-98 0 -148 68.5t-50 199.5z" />
<glyph unicode="&#x150;" d="M113 508v450q0 153 21.5 256t68.5 163t112.5 85t161.5 25t161.5 -25t112.5 -85t69 -163t22 -256v-450q0 -154 -22 -257.5t-69 -163.5t-112.5 -85t-161.5 -25t-161.5 25t-112.5 85t-68.5 163.5t-21.5 257.5zM221 508q0 -173 27 -268t80.5 -131.5t148.5 -36.5t149 36 t81.5 131.5t27.5 268.5v450q0 172 -27.5 267t-81.5 131.5t-149 36.5t-148.5 -36.5t-80.5 -131.5t-27 -267v-450zM350 1587l37 262h125l-86 -262h-76zM526 1587l84 262h127l-133 -262h-78z" />
<glyph unicode="&#x151;" horiz-adv-x="878" d="M96 500v127q0 154 18.5 254t61.5 160t106 84t158 24t157 -24t105 -84t61.5 -160t18.5 -254v-127q0 -154 -18.5 -254t-61 -160.5t-105 -84.5t-157.5 -24q-96 0 -159 24t-105.5 84.5t-61 160.5t-18.5 254zM201 500q0 -176 22 -267.5t72 -128t145 -36.5t144.5 36.5t71.5 128 t22 267.5v127q0 176 -22 267.5t-71.5 128t-144.5 36.5t-145 -36.5t-72 -128t-22 -267.5v-127zM307 1249l37 262h125l-86 -262h-76zM483 1249l84 262h127l-133 -262h-78z" />
<glyph unicode="&#x152;" horiz-adv-x="1417" d="M109 508v450q0 119 16.5 207t46.5 145t78 91.5t104.5 48.5t132.5 14h813v-94h-497v-582h436v-90h-436v-604h497v-94h-813q-95 0 -162 23.5t-117 80.5t-74.5 157t-24.5 247zM209 508q0 -123 17.5 -204.5t54.5 -127t86 -64t120 -18.5h207v1276h-207q-75 0 -124.5 -18 t-85.5 -64t-52 -126.5t-16 -203.5v-450z" />
<glyph unicode="&#x153;" horiz-adv-x="1443" d="M96 500v127q0 154 18.5 254t61.5 160t106 84t158 24q119 0 187.5 -41.5t101.5 -140.5q35 101 104.5 141.5t184.5 40.5q89 0 148 -23.5t101.5 -82.5t61.5 -161.5t19 -258.5v-105h-566q0 -117 8.5 -195t25.5 -129.5t49 -78.5t71.5 -37t101.5 -10q121 0 275 59v-102 q-142 -48 -287 -48q-121 0 -191.5 40t-105.5 141q-33 -99 -101.5 -140t-187.5 -41q-96 0 -159 24t-105.5 84.5t-61 160.5t-18.5 254zM201 500q0 -176 22 -267.5t72 -128t145 -36.5t144.5 36.5t71.5 128t22 267.5v127q0 176 -22 267.5t-71.5 128t-144.5 36.5t-145 -36.5 t-72 -128t-22 -267.5v-127zM782 608h461q0 113 -6.5 188t-21 128.5t-41.5 82t-63.5 40.5t-92.5 12q-93 0 -141.5 -36.5t-71.5 -133t-23 -281.5z" />
<glyph unicode="&#x154;" horiz-adv-x="966" d="M160 0v1464h332q99 0 165 -20.5t112.5 -71t67.5 -137t21 -217.5q0 -176 -49.5 -277t-153.5 -141l211 -600h-112l-201 578h-285v-578h-108zM268 672h228q140 0 197 76t57 270q0 109 -14.5 178t-48 107.5t-78.5 52.5t-117 14h-224v-698zM430 1587l92 262h133l-145 -262h-80 z" />
<glyph unicode="&#x155;" horiz-adv-x="536" d="M139 0v1126h76l18 -96q54 59 111 89t137 30v-105q-83 0 -134.5 -27.5t-102.5 -94.5v-922h-105zM270 1249l92 262h134l-146 -262h-80z" />
<glyph unicode="&#x156;" horiz-adv-x="966" d="M160 0v1464h332q99 0 165 -20.5t112.5 -71t67.5 -137t21 -217.5q0 -176 -49.5 -277t-153.5 -141l211 -600h-112l-201 578h-285v-578h-108zM268 672h228q140 0 197 76t57 270q0 109 -14.5 178t-48 107.5t-78.5 52.5t-117 14h-224v-698zM379 -428l57 297h125l-106 -297h-76 z" />
<glyph unicode="&#x157;" horiz-adv-x="536" d="M70 -428l57 297h125l-107 -297h-75zM139 0v1126h76l18 -96q54 59 111 89t137 30v-105q-83 0 -134.5 -27.5t-102.5 -94.5v-922h-105z" />
<glyph unicode="&#x158;" horiz-adv-x="966" d="M160 0v1464h332q99 0 165 -20.5t112.5 -71t67.5 -137t21 -217.5q0 -176 -49.5 -277t-153.5 -141l211 -600h-112l-201 578h-285v-578h-108zM268 672h228q140 0 197 76t57 270q0 109 -14.5 178t-48 107.5t-78.5 52.5t-117 14h-224v-698zM311 1849h82l90 -168l90 168h84 l-112 -262h-121z" />
<glyph unicode="&#x159;" horiz-adv-x="536" d="M139 0v1126h76l18 -96q54 59 111 89t137 30v-105q-83 0 -134.5 -27.5t-102.5 -94.5v-922h-105zM147 1511h82l90 -168l91 168h84l-113 -262h-121z" />
<glyph unicode="&#x15a;" horiz-adv-x="921" d="M94 373h109q0 -89 16.5 -149t51 -92.5t79 -46t107.5 -13.5q142 0 199 71.5t57 225.5q0 84 -8.5 135t-35.5 95.5t-79.5 70t-138.5 39.5q-183 31 -260.5 126t-77.5 265q0 188 87 287.5t255 99.5q176 0 260 -93.5t84 -310.5h-109q0 174 -54.5 242t-180.5 68 q-120 0 -178 -71.5t-58 -221.5q0 -137 55.5 -206.5t190.5 -90.5q107 -17 177.5 -51t109.5 -90.5t54 -125.5t15 -167q0 -200 -84 -296t-280 -96q-85 0 -148 18t-113.5 61.5t-76 122.5t-25.5 194zM428 1587l92 262h133l-145 -262h-80z" />
<glyph unicode="&#x15b;" horiz-adv-x="831" d="M84 309h102q0 -128 50.5 -184.5t171.5 -56.5q75 0 124 16.5t72.5 50.5t32 72.5t8.5 95.5q0 101 -55.5 150.5t-179.5 68.5q-155 22 -231.5 96t-76.5 216q0 162 82 238.5t228 76.5q162 0 236.5 -79.5t74.5 -252.5h-100q0 129 -48.5 185.5t-162.5 56.5q-103 0 -155 -51.5 t-52 -173.5q0 -109 54.5 -157.5t168.5 -64.5q173 -23 246.5 -93.5t73.5 -215.5q0 -59 -7.5 -104t-29 -88.5t-58.5 -71.5t-99 -45t-146 -17q-96 0 -160.5 23.5t-99.5 69.5t-49 103t-15 136zM379 1249l92 262h133l-145 -262h-80z" />
<glyph unicode="&#x15c;" horiz-adv-x="921" d="M94 373h109q0 -89 16.5 -149t51 -92.5t79 -46t107.5 -13.5q142 0 199 71.5t57 225.5q0 84 -8.5 135t-35.5 95.5t-79.5 70t-138.5 39.5q-183 31 -260.5 126t-77.5 265q0 188 87 287.5t255 99.5q176 0 260 -93.5t84 -310.5h-109q0 174 -54.5 242t-180.5 68 q-120 0 -178 -71.5t-58 -221.5q0 -137 55.5 -206.5t190.5 -90.5q107 -17 177.5 -51t109.5 -90.5t54 -125.5t15 -167q0 -200 -84 -296t-280 -96q-85 0 -148 18t-113.5 61.5t-76 122.5t-25.5 194zM293 1587l113 262h122l113 -262h-84l-90 170l-90 -170h-84z" />
<glyph unicode="&#x15d;" horiz-adv-x="831" d="M84 309h102q0 -128 50.5 -184.5t171.5 -56.5q75 0 124 16.5t72.5 50.5t32 72.5t8.5 95.5q0 101 -55.5 150.5t-179.5 68.5q-155 22 -231.5 96t-76.5 216q0 162 82 238.5t228 76.5q162 0 236.5 -79.5t74.5 -252.5h-100q0 129 -48.5 185.5t-162.5 56.5q-103 0 -155 -51.5 t-52 -173.5q0 -109 54.5 -157.5t168.5 -64.5q173 -23 246.5 -93.5t73.5 -215.5q0 -59 -7.5 -104t-29 -88.5t-58.5 -71.5t-99 -45t-146 -17q-96 0 -160.5 23.5t-99.5 69.5t-49 103t-15 136zM240 1249l112 262h123l113 -262h-84l-90 170l-90 -170h-84z" />
<glyph unicode="&#x15e;" horiz-adv-x="921" d="M94 373h109q0 -89 16.5 -149t51 -92.5t79 -46t107.5 -13.5q143 0 200.5 71.5t57.5 225.5q0 84 -9 135.5t-36.5 95.5t-80 69t-138.5 40q-182 31 -260 126t-78 265q0 188 87 287.5t255 99.5q177 0 261.5 -93.5t84.5 -310.5h-109q0 174 -55 242t-182 68q-120 0 -177 -71 t-57 -222q0 -137 55 -206.5t191 -90.5q107 -17 177.5 -51t109.5 -90.5t54 -125.5t15 -167q0 -194 -80.5 -291t-263.5 -101l-14 -83q51 -5 88 -40.5t37 -101.5q0 -88 -48.5 -123t-140.5 -35h-86v78h99q41 0 62.5 21.5t21.5 58.5q0 41 -20.5 59.5t-63.5 18.5h-35l27 150 q-73 5 -127.5 26t-97.5 65t-65 120t-22 182z" />
<glyph unicode="&#x15f;" horiz-adv-x="831" d="M84 309h102q0 -128 50.5 -184.5t171.5 -56.5q75 0 124 16.5t72.5 50.5t32 72.5t8.5 95.5q0 101 -55.5 150.5t-179.5 68.5q-155 22 -231.5 96t-76.5 216q0 162 82 238.5t228 76.5q162 0 236.5 -79.5t74.5 -252.5h-100q0 129 -48.5 185.5t-162.5 56.5q-103 0 -155 -51.5 t-52 -173.5q0 -109 54.5 -157.5t168.5 -64.5q173 -23 246.5 -93.5t73.5 -215.5q0 -71 -12 -123t-43 -98t-93 -72t-154 -30l-16 -86q54 -9 90.5 -42.5t36.5 -99.5q0 -88 -49 -123t-141 -35h-86v72h100q40 0 62 24.5t22 61.5q0 84 -84 84h-37l29 144q-85 4 -142.5 29t-89 70.5 t-44 100t-13.5 129.5z" />
<glyph unicode="&#x160;" horiz-adv-x="921" d="M94 373h109q0 -89 16.5 -149t51 -92.5t79 -46t107.5 -13.5q142 0 199 71.5t57 225.5q0 84 -8.5 135t-35.5 95.5t-79.5 70t-138.5 39.5q-183 31 -260.5 126t-77.5 265q0 188 87 287.5t255 99.5q176 0 260 -93.5t84 -310.5h-109q0 174 -54.5 242t-180.5 68 q-120 0 -178 -71.5t-58 -221.5q0 -137 55.5 -206.5t190.5 -90.5q107 -17 177.5 -51t109.5 -90.5t54 -125.5t15 -167q0 -200 -84 -296t-280 -96q-85 0 -148 18t-113.5 61.5t-76 122.5t-25.5 194zM291 1849h82l90 -168l90 168h84l-113 -262h-121z" />
<glyph unicode="&#x161;" horiz-adv-x="831" d="M84 309h102q0 -128 50.5 -184.5t171.5 -56.5q75 0 124 16.5t72.5 50.5t32 72.5t8.5 95.5q0 101 -55.5 150.5t-179.5 68.5q-155 22 -231.5 96t-76.5 216q0 162 82 238.5t228 76.5q162 0 236.5 -79.5t74.5 -252.5h-100q0 129 -48.5 185.5t-162.5 56.5q-103 0 -155 -51.5 t-52 -173.5q0 -109 54.5 -157.5t168.5 -64.5q173 -23 246.5 -93.5t73.5 -215.5q0 -59 -7.5 -104t-29 -88.5t-58.5 -71.5t-99 -45t-146 -17q-96 0 -160.5 23.5t-99.5 69.5t-49 103t-15 136zM242 1511h82l90 -168l90 168h84l-113 -262h-121z" />
<glyph unicode="&#x162;" horiz-adv-x="743" d="M33 1370v94h676v-94h-283v-1370h-109v1370h-284zM256 -428l57 297h125l-106 -297h-76z" />
<glyph unicode="&#x163;" horiz-adv-x="520" d="M45 1036v66l98 24v267l105 24v-291h196v-90h-196v-819q0 -84 22.5 -116.5t73.5 -32.5q47 0 131 30v-96q-63 -25 -137 -25q-101 0 -148 53.5t-47 186.5v819h-98zM170 -428l57 297h125l-106 -297h-76z" />
<glyph unicode="&#x164;" horiz-adv-x="743" d="M33 1370v94h676v-94h-283v-1370h-109v1370h-284zM199 1849h82l90 -168l90 168h84l-113 -262h-121z" />
<glyph unicode="&#x165;" horiz-adv-x="520" d="M45 1036v66l98 24v267l105 24v-291h196v-90h-196v-819q0 -84 22.5 -116.5t73.5 -32.5q47 0 131 30v-96q-63 -25 -137 -25q-101 0 -148 53.5t-47 186.5v819h-98zM373 1217v366h114l-45 -366h-69z" />
<glyph unicode="&#x166;" horiz-adv-x="743" d="M33 1370v94h676v-94h-283v-584h164v-86h-164v-700h-109v700h-163v86h163v584h-284z" />
<glyph unicode="&#x167;" horiz-adv-x="520" d="M45 1036v66l98 24v267l105 24v-291h196v-90h-196v-420h180v-77h-180v-322q0 -84 22.5 -116.5t73.5 -32.5q47 0 131 30v-96q-63 -25 -137 -25q-97 0 -146 54t-49 186v322h-86v77h86v420h-98z" />
<glyph unicode="&#x168;" horiz-adv-x="987" d="M137 446v1018h109v-1018q0 -209 55.5 -291.5t192.5 -82.5q138 0 192.5 82t54.5 292v1018h109v-1018q0 -138 -22.5 -230.5t-69.5 -144.5t-110 -73t-154 -21t-154 21t-110.5 73t-70 144.5t-22.5 230.5zM260 1614q0 188 137 188q32 0 61.5 -18.5t48 -41t43 -41t46.5 -18.5 q53 0 53 105h82q0 -99 -36.5 -144t-98.5 -45q-40 0 -73 18.5t-50.5 41t-37.5 41t-38 18.5q-31 0 -44 -25t-13 -79h-80z" />
<glyph unicode="&#x169;" horiz-adv-x="905" d="M131 367v759h102v-759q0 -117 22 -183t62.5 -91t110.5 -25q54 0 119.5 39t124.5 98v921h102v-1126h-74l-20 104q-127 -127 -258 -127q-75 0 -126.5 17.5t-90 61t-56.5 120.5t-18 191zM221 1276q0 188 137 188q32 0 61.5 -18.5t48 -40.5t43 -40.5t46.5 -18.5q53 0 53 104 h82q0 -98 -36.5 -143t-98.5 -45q-40 0 -73 18.5t-50.5 40.5t-37.5 40.5t-38 18.5q-31 0 -44 -25t-13 -79h-80z" />
<glyph unicode="&#x16a;" horiz-adv-x="987" d="M137 446v1018h109v-1018q0 -209 55.5 -291.5t192.5 -82.5q138 0 192.5 82t54.5 292v1018h109v-1018q0 -138 -22.5 -230.5t-69.5 -144.5t-110 -73t-154 -21t-154 21t-110.5 73t-70 144.5t-22.5 230.5zM293 1622v90h401v-90h-401z" />
<glyph unicode="&#x16b;" horiz-adv-x="905" d="M131 367v759h102v-759q0 -117 22 -183t62.5 -91t110.5 -25q54 0 119.5 39t124.5 98v921h102v-1126h-74l-20 104q-127 -127 -258 -127q-75 0 -126.5 17.5t-90 61t-56.5 120.5t-18 191zM254 1284v90h401v-90h-401z" />
<glyph unicode="&#x16c;" horiz-adv-x="987" d="M137 446v1018h109v-1018q0 -209 55.5 -291.5t192.5 -82.5q138 0 192.5 82t54.5 292v1018h109v-1018q0 -138 -22.5 -230.5t-69.5 -144.5t-110 -73t-154 -21t-154 21t-110.5 73t-70 144.5t-22.5 230.5zM293 1843h90q0 -184 109 -184q110 0 110 184h90q0 -131 -50.5 -199.5 t-149.5 -68.5q-98 0 -148.5 68.5t-50.5 199.5z" />
<glyph unicode="&#x16d;" horiz-adv-x="905" d="M131 367v759h102v-759q0 -117 22 -183t62.5 -91t110.5 -25q54 0 119.5 39t124.5 98v921h102v-1126h-74l-20 104q-127 -127 -258 -127q-75 0 -126.5 17.5t-90 61t-56.5 120.5t-18 191zM254 1505h90q0 -184 109 -184q110 0 110 184h90q0 -131 -50.5 -199.5t-149.5 -68.5 q-98 0 -148.5 68.5t-50.5 199.5z" />
<glyph unicode="&#x16e;" horiz-adv-x="987" d="M137 446v1018h109v-1018q0 -209 55.5 -291.5t192.5 -82.5q138 0 192.5 82t54.5 292v1018h109v-1018q0 -138 -22.5 -230.5t-69.5 -144.5t-110 -73t-154 -21t-154 21t-110.5 73t-70 144.5t-22.5 230.5zM330 1755q0 87 45.5 133.5t122.5 46.5t122.5 -46.5t45.5 -133.5 q0 -89 -45 -134.5t-123 -45.5t-123 45.5t-45 134.5zM416 1755q0 -50 21.5 -77t60.5 -27t60.5 27t21.5 77q0 48 -22 76.5t-60 28.5t-60 -28.5t-22 -76.5z" />
<glyph unicode="&#x16f;" horiz-adv-x="905" d="M131 367v759h102v-759q0 -117 22 -183t62.5 -91t110.5 -25q54 0 119.5 39t124.5 98v921h102v-1126h-74l-20 104q-127 -127 -258 -127q-75 0 -126.5 17.5t-90 61t-56.5 120.5t-18 191zM291 1417q0 87 45.5 133.5t122.5 46.5t122.5 -46.5t45.5 -133.5q0 -89 -45 -134.5 t-123 -45.5t-123 45.5t-45 134.5zM377 1417q0 -50 21.5 -77t60.5 -27t60.5 27t21.5 77q0 48 -22 76.5t-60 28.5t-60 -28.5t-22 -76.5z" />
<glyph unicode="&#x170;" horiz-adv-x="987" d="M137 446v1018h109v-1018q0 -209 55.5 -291.5t192.5 -82.5q138 0 192.5 82t54.5 292v1018h109v-1018q0 -138 -22.5 -230.5t-69.5 -144.5t-110 -73t-154 -21t-154 21t-110.5 73t-70 144.5t-22.5 230.5zM362 1587l37 262h125l-86 -262h-76zM539 1587l84 262h127l-134 -262 h-77z" />
<glyph unicode="&#x171;" horiz-adv-x="905" d="M131 367v759h102v-759q0 -117 22 -183t62.5 -91t110.5 -25q54 0 119.5 39t124.5 98v921h102v-1126h-74l-20 104q-127 -127 -258 -127q-75 0 -126.5 17.5t-90 61t-56.5 120.5t-18 191zM311 1249l37 262h125l-86 -262h-76zM487 1249l84 262h127l-133 -262h-78z" />
<glyph unicode="&#x172;" horiz-adv-x="987" d="M137 446v1018h109v-1018q0 -209 55.5 -291.5t192.5 -82.5q138 0 192.5 82t54.5 292v1018h109v-1018q0 -207 -53 -311.5t-160 -136.5q-113 -131 -113 -219q0 -35 18 -51.5t42 -16.5h57v-94h-72q-147 0 -147 139q0 105 106 224q-15 -3 -34 -3q-91 0 -154 21t-110.5 73 t-70 144.5t-22.5 230.5z" />
<glyph unicode="&#x173;" horiz-adv-x="905" d="M131 367v759h102v-759q0 -117 22 -183t62.5 -91t110.5 -25q54 0 119.5 39t124.5 98v921h102v-1126q-117 -129 -117 -223q0 -38 19 -55t47 -17h51v-88h-67q-68 0 -105 36t-37 105q0 117 133 250l-18 96q-127 -127 -258 -127q-75 0 -126.5 17.5t-90 61t-56.5 120.5t-18 191 z" />
<glyph unicode="&#x174;" horiz-adv-x="1372" d="M80 1464h110l166 -999q10 -67 24 -173.5t17 -129.5q17 147 45 301l187 1001h127l186 -1001q4 -22 45 -301q18 155 41 303l164 999h113l-252 -1464h-125l-201 1090q-29 189 -35 243q-30 -207 -37 -243l-200 -1090h-123zM516 1587l113 262h123l112 -262h-84l-90 170 l-90 -170h-84z" />
<glyph unicode="&#x175;" horiz-adv-x="1198" d="M49 1126h109l176 -1005l194 1005h142l194 -1005l176 1005h109l-213 -1126h-139l-197 1020l-199 -1020h-137zM424 1249l113 262h122l113 -262h-84l-90 170l-90 -170h-84z" />
<glyph unicode="&#x176;" horiz-adv-x="804" d="M35 1464h117l251 -731l252 731h115l-313 -864v-600h-109v600zM231 1587l113 262h123l113 -262h-84l-90 170l-91 -170h-84z" />
<glyph unicode="&#x177;" horiz-adv-x="778" d="M29 1126h112l248 -966l246 966h113l-349 -1296q-35 -130 -89.5 -183t-151.5 -53q-63 0 -101 21v102q51 -30 101 -30q51 0 86.5 38t58.5 138l35 139zM217 1249l113 262h123l112 -262h-84l-90 170l-90 -170h-84z" />
<glyph unicode="&#x178;" horiz-adv-x="804" d="M35 1464h117l251 -731l252 731h115l-313 -864v-600h-109v600zM229 1602v135h127v-135h-127zM455 1602v135h127v-135h-127z" />
<glyph unicode="&#x179;" horiz-adv-x="845" d="M94 0v74l541 1296h-524v94h641v-80l-539 -1290h555v-94h-674zM375 1587l92 262h133l-145 -262h-80z" />
<glyph unicode="&#x17a;" horiz-adv-x="806" d="M90 0v70l490 966h-474v90h596v-69l-487 -967h512v-90h-637zM362 1249l93 262h133l-146 -262h-80z" />
<glyph unicode="&#x17b;" horiz-adv-x="845" d="M94 0v74l541 1296h-524v94h641v-80l-539 -1290h555v-94h-674zM350 1599v140h135v-140h-135z" />
<glyph unicode="&#x17c;" horiz-adv-x="806" d="M90 0v70l490 966h-474v90h596v-69l-487 -967h512v-90h-637zM334 1262v139h135v-139h-135z" />
<glyph unicode="&#x17d;" horiz-adv-x="845" d="M94 0v74l541 1296h-524v94h641v-80l-539 -1290h555v-94h-674zM252 1849h82l90 -168l90 168h84l-113 -262h-120z" />
<glyph unicode="&#x17e;" horiz-adv-x="806" d="M90 0v70l490 966h-474v90h596v-69l-487 -967h512v-90h-637zM233 1511h82l91 -168l90 168h84l-113 -262h-121z" />
<glyph unicode="&#x192;" horiz-adv-x="602" d="M-6 -285q66 -30 121 -30q50 0 71 33t21 112v1206h-98v66l98 24v174q0 232 194 232q53 0 121 -25v-92q-74 27 -119 27q-51 0 -71.5 -32t-20.5 -112v-172h162v-90h-162v-1208q0 -119 -47 -176.5t-143 -57.5q-65 0 -127 25v96z" />
<glyph unicode="&#x218;" horiz-adv-x="921" d="M94 373h109q0 -89 16.5 -149t51 -92.5t79 -46t107.5 -13.5q142 0 199 71.5t57 225.5q0 84 -8.5 135t-35.5 95.5t-79.5 70t-138.5 39.5q-183 31 -260.5 126t-77.5 265q0 188 87 287.5t255 99.5q176 0 260 -93.5t84 -310.5h-109q0 174 -54.5 242t-180.5 68 q-120 0 -178 -71.5t-58 -221.5q0 -137 55.5 -206.5t190.5 -90.5q107 -17 177.5 -51t109.5 -90.5t54 -125.5t15 -167q0 -200 -84 -296t-280 -96q-85 0 -148 18t-113.5 61.5t-76 122.5t-25.5 194zM336 -428l57 297h125l-106 -297h-76z" />
<glyph unicode="&#x219;" horiz-adv-x="831" d="M84 309h102q0 -128 50.5 -184.5t171.5 -56.5q75 0 124 16.5t72.5 50.5t32 72.5t8.5 95.5q0 101 -55.5 150.5t-179.5 68.5q-155 22 -231.5 96t-76.5 216q0 162 82 238.5t228 76.5q162 0 236.5 -79.5t74.5 -252.5h-100q0 129 -48.5 185.5t-162.5 56.5q-103 0 -155 -51.5 t-52 -173.5q0 -109 54.5 -157.5t168.5 -64.5q173 -23 246.5 -93.5t73.5 -215.5q0 -59 -7.5 -104t-29 -88.5t-58.5 -71.5t-99 -45t-146 -17q-96 0 -160.5 23.5t-99.5 69.5t-49 103t-15 136zM326 -428l57 297h125l-107 -297h-75z" />
<glyph unicode="&#x2c6;" horiz-adv-x="540" d="M98 1249l113 262h123l112 -262h-84l-90 170l-90 -170h-84z" />
<glyph unicode="&#x2c7;" horiz-adv-x="632" d="M150 1511h81l91 -168l90 168h84l-113 -262h-121z" />
<glyph unicode="&#x2d8;" horiz-adv-x="583" d="M92 1505h90q0 -184 109 -184q110 0 110 184h91q0 -131 -51 -199.5t-150 -68.5q-98 0 -148.5 68.5t-50.5 199.5z" />
<glyph unicode="&#x2d9;" horiz-adv-x="380" d="M125 1262v139h135v-139h-135z" />
<glyph unicode="&#x2da;" horiz-adv-x="550" d="M111 1417q0 87 45.5 133.5t122.5 46.5t122 -46.5t45 -133.5q0 -90 -44.5 -135t-122.5 -45t-123 45.5t-45 134.5zM197 1417q0 -50 21.5 -77t60.5 -27t60 26.5t21 77.5q0 48 -21.5 76.5t-59.5 28.5t-60 -28.5t-22 -76.5z" />
<glyph unicode="&#x2db;" horiz-adv-x="385" d="M72 -244q0 113 131 244h90q-117 -132 -117 -221q0 -35 17 -51.5t40 -16.5h60v-94h-72q-72 0 -110.5 35t-38.5 104z" />
<glyph unicode="&#x2dc;" horiz-adv-x="724" d="M131 1276q0 188 137 188q32 0 61.5 -18.5t48 -40.5t43 -40.5t46.5 -18.5q53 0 53 104h82q0 -98 -36.5 -143t-98.5 -45q-40 0 -73 18.5t-50.5 40.5t-37.5 40.5t-38 18.5q-31 0 -44 -25t-13 -79h-80z" />
<glyph unicode="&#x2dd;" horiz-adv-x="712" d="M168 1249l37 262h125l-86 -262h-76zM344 1249l84 262h127l-133 -262h-78z" />
<glyph unicode="&#x326;" horiz-adv-x="497" d="M150 -428l57 297h125l-107 -297h-75z" />
<glyph unicode="&#x3c0;" horiz-adv-x="1034" d="M98 1032v94h846v-94h-182v-786q0 -81 21 -116.5t73 -35.5h37v-94h-37q-100 0 -149.5 60.5t-49.5 185.5v786h-272v-1032h-104v1032h-183z" />
<glyph unicode="&#x401;" horiz-adv-x="854" d="M158 0v1464h606v-94h-498v-582h436v-90h-436v-604h498v-94h-606zM303 1554v136h127v-136h-127zM528 1554v136h127v-136h-127z" />
<glyph unicode="&#x402;" horiz-adv-x="1105" d="M45 1370v94h676v-94h-285v-545q144 99 254 99q76 0 126.5 -17t87.5 -60.5t54 -119.5t17 -192v-488q0 -129 -46 -189.5t-145 -60.5q-23 0 -77 8v101q32 -12 75 -12q48 0 67 33.5t19 117.5v490q0 174 -41.5 236.5t-144.5 62.5q-52 0 -118 -30t-128 -77v-727h-106v1370h-285 z" />
<glyph unicode="&#x403;" horiz-adv-x="788" d="M158 0v1464h585v-94h-477v-1370h-108zM410 1587l92 262h133l-146 -262h-79z" />
<glyph unicode="&#x404;" horiz-adv-x="913" d="M113 510v448q0 291 82 410t282 119q181 0 263.5 -92.5t82.5 -311.5h-106q0 174 -55.5 242t-184.5 68q-98 0 -152.5 -40t-79 -132.5t-24.5 -259.5v-170h320v-95h-320v-188q0 -170 23.5 -262.5t78 -133t154.5 -40.5q129 0 184.5 67.5t55.5 241.5h106q0 -219 -82.5 -311.5 t-263.5 -92.5q-99 0 -165.5 25t-112 86t-66 164t-20.5 258z" />
<glyph unicode="&#x405;" horiz-adv-x="913" d="M84 373h109q0 -89 16.5 -149t50.5 -92.5t78.5 -46t107.5 -13.5q142 0 199 71.5t57 225.5q0 84 -8.5 135t-35.5 95.5t-79.5 70t-138.5 39.5q-183 31 -260.5 126t-77.5 265q0 188 87 287.5t255 99.5q176 0 260 -93.5t84 -310.5h-108q0 174 -55 242t-181 68 q-120 0 -177.5 -71.5t-57.5 -221.5q0 -137 55.5 -206.5t190.5 -90.5q107 -17 177.5 -51t109.5 -90.5t54 -125.5t15 -167q0 -199 -84.5 -295.5t-280.5 -96.5q-85 0 -148 18t-113 61.5t-75.5 122.5t-25.5 194z" />
<glyph unicode="&#x406;" horiz-adv-x="423" d="M158 0v1464h108v-1464h-108z" />
<glyph unicode="&#x407;" horiz-adv-x="423" d="M37 1602v135h125v-135h-125zM158 0v1464h108v-1464h-108zM262 1602v135h125v-135h-125z" />
<glyph unicode="&#x408;" horiz-adv-x="659" d="M78 2v104q98 -34 184 -34q72 0 102.5 44.5t30.5 164.5v1183h107v-1183q0 -157 -54 -230.5t-184 -73.5q-107 0 -186 25z" />
<glyph unicode="&#x409;" horiz-adv-x="1550" d="M45 0v94q30 -6 53 -6q42 0 61 20.5t19 75.5v1280h682v-673h227q74 0 132 -11.5t109 -39t84 -71.5t52 -112t19 -158q0 -116 -29 -196t-84.5 -123t-124.5 -61.5t-162 -18.5h-331v1374h-465v-1190q0 -103 -44 -145.5t-139 -42.5q-31 0 -59 4zM860 94h223q71 0 119.5 12 t89 44t60.5 94t20 155q0 91 -20 151.5t-60.5 91.5t-88 42.5t-116.5 11.5h-227v-602z" />
<glyph unicode="&#x40a;" horiz-adv-x="1538" d="M158 0v1464h108v-676h475v676h109v-673h227q92 0 160.5 -18.5t122.5 -61.5t82 -121t28 -191q0 -95 -19 -165.5t-52 -115t-84 -71.5t-108.5 -37t-133.5 -10h-332v698h-475v-698h-108zM850 94h223q57 0 98 7t78.5 26.5t60.5 53.5t36.5 88.5t13.5 129.5q0 73 -14 126.5 t-37 86t-60 51.5t-77.5 26t-94.5 7h-227v-602z" />
<glyph unicode="&#x40b;" horiz-adv-x="1101" d="M45 1370v94h676v-94h-285v-545q144 99 254 99q76 0 126.5 -17t87.5 -60.5t54 -119.5t17 -192v-535h-107v535q0 174 -41.5 236.5t-144.5 62.5q-52 0 -118 -30t-128 -77v-727h-106v1370h-285z" />
<glyph unicode="&#x40c;" horiz-adv-x="833" d="M158 0v1464h108v-678q33 66 53 97l351 581h121l-435 -708l445 -756h-123l-356 612l-56 105v-717h-108zM410 1587l92 262h133l-146 -262h-79z" />
<glyph unicode="&#x40e;" horiz-adv-x="839" d="M57 1464h115l262 -909l258 909h115l-365 -1249q-38 -132 -91.5 -185t-149.5 -53q-56 0 -131 23v106q69 -30 129 -30q50 0 85.5 38t59.5 132l39 160zM240 1724h82q0 -59 28 -92t82 -33q57 0 85 33t28 92h84q0 -94 -50 -151t-147 -57q-95 0 -143.5 56t-48.5 152z" />
<glyph unicode="&#x40f;" horiz-adv-x="1007" d="M158 0v1464h108v-1374h475v1374h109v-1464h-293v-227h-106v227h-293z" />
<glyph unicode="&#x410;" horiz-adv-x="860" d="M41 0l326 1464h127l325 -1464h-106l-88 401h-387l-88 -401h-109zM256 496h348l-135 632q-23 105 -39 230q-10 -99 -39 -230z" />
<glyph unicode="&#x411;" d="M158 0v1464h630v-94h-522v-510h258q170 0 261.5 -106.5t91.5 -323.5q0 -430 -351 -430h-368zM266 94h260q131 0 187.5 86.5t56.5 251.5q0 164 -57.5 249t-188.5 85h-258v-672z" />
<glyph unicode="&#x412;" horiz-adv-x="962" d="M158 0v1464h344q186 0 265 -86.5t79 -287.5q0 -134 -44.5 -216t-133.5 -126q108 -39 158.5 -127.5t50.5 -231.5q0 -215 -83.5 -302t-267.5 -87h-368zM266 94h260q134 0 189 70t55 231q0 152 -57 227.5t-176 75.5h-271v-604zM266 788h271q100 0 150 81.5t50 213.5 q0 158 -53.5 222.5t-181.5 64.5h-236v-582z" />
<glyph unicode="&#x413;" horiz-adv-x="788" d="M158 0v1464h585v-94h-477v-1370h-108z" />
<glyph unicode="&#x414;" horiz-adv-x="1054" d="M49 94h109q100 351 138 650t38 720h563v-1370h109v-252h-80l-29 158h-739l-29 -158h-80v252zM268 94h520v1280h-352q0 -350 -39 -647t-129 -633z" />
<glyph unicode="&#x415;" horiz-adv-x="854" d="M158 0v1464h606v-94h-498v-582h436v-90h-436v-604h498v-94h-606z" />
<glyph unicode="&#x416;" horiz-adv-x="1179" d="M31 0l420 743l-410 721h119l319 -581l58 -111v692h108v-692q32 70 55 111l320 581h121l-412 -721l420 -743h-119l-328 600q-11 18 -25.5 47t-22.5 49l-9 19v-715h-108v715q-35 -74 -60 -115l-325 -600h-121z" />
<glyph unicode="&#x417;" horiz-adv-x="882" d="M68 1087q0 210 87 305t257 95q185 0 272.5 -98t87.5 -322q0 -119 -53.5 -202.5t-130.5 -121.5q94 -34 155.5 -123t61.5 -225q0 -418 -385 -418q-164 0 -318 60v113q168 -76 312 -76q68 0 117.5 15t88.5 50.5t58.5 99.5t19.5 156q0 124 -63 212.5t-154 88.5h-166v95h164 q76 0 130.5 84.5t54.5 191.5q0 180 -58 253t-194 73q-124 0 -180 -68t-56 -238h-108z" />
<glyph unicode="&#x418;" horiz-adv-x="1030" d="M158 0v1464h104v-1108l-2 -149q35 106 51 141l455 1116h106v-1464h-104v1108l2 149q-31 -94 -51 -143l-455 -1114h-106z" />
<glyph unicode="&#x419;" horiz-adv-x="1030" d="M158 0v1464h104v-1108l-2 -149q35 106 51 141l455 1116h106v-1464h-104v1108l2 149q-31 -94 -51 -143l-455 -1114h-106zM319 1702h84q0 -58 28.5 -91.5t82.5 -33.5q56 0 84.5 33t28.5 92h82q0 -95 -49.5 -152t-145.5 -57q-95 0 -145 56.5t-50 152.5z" />
<glyph unicode="&#x41a;" horiz-adv-x="833" d="M158 0v1464h108v-678q33 66 53 97l351 581h121l-435 -708l445 -756h-123l-356 612l-56 105v-717h-108z" />
<glyph unicode="&#x41b;" horiz-adv-x="1017" d="M45 0v94q30 -6 53 -6q42 0 61 20.5t19 75.5v1280h682v-1464h-108v1374h-465v-1190q0 -103 -44 -145.5t-139 -42.5q-31 0 -59 4z" />
<glyph unicode="&#x41c;" horiz-adv-x="1261" d="M158 0v1464h155l277 -1138q7 -30 20.5 -95.5t20.5 -93.5q11 66 41 189l276 1138h156v-1464h-100v1159l6 187h-2q-31 -146 -39 -179l-285 -1167h-106l-287 1167q-5 17 -37 179h-2q0 -4 4 -78.5t4 -108.5v-1159h-102z" />
<glyph unicode="&#x41d;" horiz-adv-x="1007" d="M158 0v1464h108v-676h475v676h109v-1464h-109v698h-475v-698h-108z" />
<glyph unicode="&#x41e;" d="M113 508v450q0 153 21.5 256t68.5 163t112.5 85t161.5 25t161.5 -25t112.5 -85t69 -163t22 -256v-450q0 -154 -22 -257.5t-69 -163.5t-112.5 -85t-161.5 -25t-161.5 25t-112.5 85t-68.5 163.5t-21.5 257.5zM221 508q0 -173 27 -268t80.5 -131.5t148.5 -36.5t149 36 t81.5 131.5t27.5 268.5v450q0 172 -27.5 267t-81.5 131.5t-149 36.5t-148.5 -36.5t-80.5 -131.5t-27 -267v-450z" />
<glyph unicode="&#x41f;" horiz-adv-x="1007" d="M158 0v1464h692v-1464h-109v1374h-475v-1374h-108z" />
<glyph unicode="&#x420;" horiz-adv-x="923" d="M158 0v1464h331q132 0 209.5 -38t117.5 -136.5t40 -271.5q0 -236 -85 -338t-277 -102h-228v-578h-108zM266 672h228q140 0 195.5 76t55.5 270q0 109 -14 178t-47 107.5t-78.5 52.5t-116.5 14h-223v-698z" />
<glyph unicode="&#x421;" horiz-adv-x="923" d="M113 510v448q0 291 82 410t282 119q181 0 263.5 -92.5t82.5 -311.5h-106q0 174 -55.5 242t-184.5 68q-98 0 -152.5 -40t-79 -132.5t-24.5 -259.5v-453q0 -170 23.5 -262.5t78 -133t154.5 -40.5q129 0 184.5 67.5t55.5 241.5h106q0 -219 -82.5 -311.5t-263.5 -92.5 q-99 0 -165.5 25t-112 86t-66 164t-20.5 258z" />
<glyph unicode="&#x422;" horiz-adv-x="765" d="M45 1370v94h676v-94h-285v-1370h-106v1370h-285z" />
<glyph unicode="&#x423;" horiz-adv-x="839" d="M57 1464h115l262 -909l258 909h115l-365 -1249q-38 -132 -91.5 -185t-149.5 -53q-56 0 -131 23v106q69 -30 129 -30q50 0 85.5 38t59.5 132l39 160z" />
<glyph unicode="&#x424;" horiz-adv-x="1392" d="M68 733q0 145 45.5 262t125 192t183 117.5t223.5 49.5v178h103v-178q120 -7 223.5 -49.5t183 -117.5t125 -192t45.5 -262q0 -147 -45.5 -264t-125.5 -192.5t-182.5 -117.5t-223.5 -50v-177h-103v177q-121 8 -223.5 50t-182.5 117.5t-125.5 192.5t-45.5 264zM178 733 q0 -126 35.5 -225.5t99.5 -163.5t147.5 -99.5t184.5 -43.5v1061q-101 -7 -184.5 -42.5t-147.5 -99t-99.5 -162.5t-35.5 -225zM748 201q100 8 183.5 43.5t147.5 99.5t99.5 163.5t35.5 225.5t-35.5 225t-99.5 162.5t-147.5 99t-183.5 42.5v-1061z" />
<glyph unicode="&#x425;" horiz-adv-x="819" d="M33 0l315 750l-297 714h117l217 -557l25 -65q14 38 24 65l217 557h117l-297 -714l315 -750h-118l-234 586l-24 69q-15 -44 -25 -69l-231 -586h-121z" />
<glyph unicode="&#x426;" horiz-adv-x="1003" d="M158 0v1464h108v-1370h475v1370h109v-1370h108v-252h-79l-29 158h-692z" />
<glyph unicode="&#x427;" horiz-adv-x="944" d="M113 805v659h108v-659q0 -72 14 -118.5t43.5 -69.5t63 -31t84.5 -8q57 0 126 29t126 75v782h108v-1464h-108v578q-57 -44 -129 -71.5t-135 -27.5q-141 0 -221 75t-80 251z" />
<glyph unicode="&#x428;" horiz-adv-x="1382" d="M158 0v1464h108v-1374h371v1374h108v-1374h373v1374h107v-1464h-1067z" />
<glyph unicode="&#x429;" horiz-adv-x="1441" d="M158 0v1464h108v-1370h404v1370h108v-1370h402v1370h108v-1370h109v-252h-80l-29 158h-1130z" />
<glyph unicode="&#x42a;" horiz-adv-x="1114" d="M45 1370v94h391v-577h228q197 0 296 -104.5t99 -336.5q0 -129 -26 -217t-79 -137.5t-124 -70.5t-171 -21h-329v1370h-285zM436 94h223q72 0 121.5 14.5t89.5 52t59 108t19 177.5q0 189 -69 268t-215 79h-228v-699z" />
<glyph unicode="&#x42b;" horiz-adv-x="1370" d="M158 0v1464h108v-577h228q196 0 294.5 -104.5t98.5 -336.5q0 -129 -25.5 -217t-79 -137.5t-123.5 -70.5t-170 -21h-331zM266 94h223q72 0 121.5 14.5t89.5 52t59 108t19 177.5q0 189 -69.5 268t-214.5 79h-228v-699zM1104 0v1464h108v-1464h-108z" />
<glyph unicode="&#x42c;" d="M158 0v1464h108v-577h228q196 0 294.5 -104.5t98.5 -336.5q0 -129 -25.5 -217t-79 -137.5t-123.5 -70.5t-170 -21h-331zM266 94h223q72 0 121.5 14.5t89.5 52t59 108t19 177.5q0 189 -69.5 268t-214.5 79h-228v-699z" />
<glyph unicode="&#x42d;" horiz-adv-x="913" d="M90 381h107q0 -174 54.5 -241.5t182.5 -67.5q148 0 203 93.5t55 342.5v188h-319v95h319v170q0 247 -55.5 339.5t-202.5 92.5q-128 0 -182.5 -68t-54.5 -242h-107q0 218 82.5 311t261.5 93q200 0 283.5 -119t83.5 -410v-448q0 -206 -39 -322.5t-116.5 -163.5t-211.5 -47 q-179 0 -261.5 93t-82.5 311z" />
<glyph unicode="&#x42e;" horiz-adv-x="1394" d="M158 0v1464h108v-676h285v170q0 153 22 256t69.5 163t113.5 85t162 25t161.5 -25t112.5 -85t68.5 -163t21.5 -256v-450q0 -154 -21.5 -257.5t-68.5 -163.5t-112.5 -85t-161.5 -25t-162 25t-113.5 85t-69.5 163.5t-22 257.5v190h-285v-698h-108zM659 508q0 -173 28 -268.5 t82 -131.5t149 -36t148.5 36.5t80.5 131.5t27 268v450q0 172 -27 267t-80.5 131.5t-148.5 36.5t-149 -36.5t-82 -131.5t-28 -267v-450z" />
<glyph unicode="&#x42f;" d="M90 0l211 600q-104 40 -153.5 141t-49.5 277q0 173 40 271.5t118 136.5t211 38h330v-1464h-107v578h-287l-200 -578h-113zM207 1018q0 -194 57 -270t199 -76h227v698h-223q-72 0 -117.5 -14t-79.5 -52.5t-48.5 -107.5t-14.5 -178z" />
<glyph unicode="&#x430;" horiz-adv-x="880" d="M90 295q0 137 66 218t196 93l295 27v160q0 150 -42.5 208t-162.5 58q-119 0 -168 -52.5t-49 -189.5h-100q0 97 22 163.5t66 102.5t98.5 51t130.5 15q165 0 236.5 -80.5t71.5 -275.5v-793h-72l-29 106q-67 -63 -130.5 -96t-137.5 -33q-135 0 -213 79t-78 239zM193 295 q0 -227 194 -227q61 0 130 40t130 97v346l-287 -33q-167 -22 -167 -223z" />
<glyph unicode="&#x431;" horiz-adv-x="905" d="M117 500v438q0 130 13.5 220.5t40 151t73.5 94t105 47t143 13.5q154 0 282 25v-94q-109 -23 -274 -23q-66 0 -110 -9.5t-83.5 -36t-62 -75t-35 -126t-12.5 -189.5q11 45 28 79t46 66.5t76.5 50t111.5 17.5q128 0 200.5 -45.5t108 -159t35.5 -317.5v-127 q0 -154 -18.5 -254t-61 -160.5t-105.5 -84.5t-159 -24t-158.5 24t-105 84.5t-60.5 160.5t-18 254zM221 500q0 -174 22 -265.5t71.5 -129t144.5 -37.5q94 0 144 37.5t72.5 129.5t22.5 265v127q0 172 -22.5 264t-72.5 130t-144 38q-88 0 -138.5 -39t-75 -133t-24.5 -260v-127z " />
<glyph unicode="&#x432;" horiz-adv-x="890" d="M139 0v1126h324q166 0 243.5 -70.5t77.5 -217.5q0 -91 -44 -164.5t-117 -102.5q94 -29 147 -100t53 -172q0 -156 -86 -227.5t-252 -71.5h-346zM244 90h241q125 0 178.5 50.5t53.5 160.5q0 116 -54 169.5t-169 53.5h-250v-434zM244 612h250q93 0 138.5 62t45.5 160 q0 111 -48 156.5t-167 45.5h-219v-424z" />
<glyph unicode="&#x433;" horiz-adv-x="704" d="M139 0v1126h520v-90h-415v-1036h-105z" />
<glyph unicode="&#x434;" horiz-adv-x="942" d="M33 90h104q72 288 99.5 504.5t27.5 531.5h529v-1036h104v-248h-74l-30 158h-656l-28 -158h-76v248zM242 90h450v946h-334q0 -260 -26.5 -466t-89.5 -480z" />
<glyph unicode="&#x435;" horiz-adv-x="862" d="M96 500v127q0 156 20 258t64 160t104.5 81t151.5 23q89 0 148 -23.5t101.5 -82.5t61.5 -161.5t19 -258.5v-105h-565q0 -117 8.5 -195t25.5 -129.5t49 -78.5t71.5 -37t101.5 -10q135 0 280 59v-100q-141 -50 -293 -50q-95 0 -156.5 22t-106.5 80t-65 160.5t-20 260.5z M201 608h461q0 187 -20 282t-67 132t-139 37t-140.5 -36.5t-71.5 -133t-23 -281.5z" />
<glyph unicode="&#x436;" horiz-adv-x="1077" d="M23 0l387 571l-383 555h114l303 -448l45 -72v520h99v-520q25 43 45 72l303 448h115l-383 -555l387 -571h-115l-305 463l-47 78v-541h-99v541q-24 -43 -47 -78l-305 -463h-114z" />
<glyph unicode="&#x437;" horiz-adv-x="817" d="M68 834q0 161 81.5 238t231.5 77q163 0 243.5 -77.5t80.5 -252.5q0 -82 -40 -145.5t-98 -95.5q172 -75 172 -275q0 -326 -370 -326q-159 0 -279 54v104q147 -65 272 -65q137 0 205 55t68 184q0 92 -48 154.5t-136 62.5h-158v90h158q68 0 108.5 64.5t40.5 136.5 q0 130 -51.5 186t-167.5 56q-107 0 -161 -52.5t-54 -172.5h-98z" />
<glyph unicode="&#x438;" horiz-adv-x="946" d="M139 0v1126h103v-815q0 -86 -4 -143q16 46 57 131l412 827h100v-1126h-102v815q0 86 4 143q-13 -39 -58 -131l-411 -827h-101z" />
<glyph unicode="&#x439;" horiz-adv-x="946" d="M139 0v1126h103v-815q0 -86 -4 -143q16 46 57 131l412 827h100v-1126h-102v815q0 86 4 143q-13 -39 -58 -131l-411 -827h-101zM276 1378h84q0 -123 109 -123q55 0 82 32.5t27 90.5h81q0 -92 -47.5 -149.5t-142.5 -57.5q-96 0 -144.5 57t-48.5 150z" />
<glyph unicode="&#x43a;" horiz-adv-x="772" d="M139 0v1126h105v-516l360 516h121l-342 -477l-59 -78q43 -50 63 -79l352 -492h-125l-370 528v-528h-105z" />
<glyph unicode="&#x43b;" horiz-adv-x="917" d="M33 0v90q30 -6 55 -6q42 0 65 21.5t23 74.5v946h602v-1126h-104v1036h-395v-852q0 -103 -45 -145.5t-142 -42.5q-31 0 -59 4z" />
<glyph unicode="&#x43c;" horiz-adv-x="1130" d="M139 0v1126h148l241 -864l37 -141q27 106 37 141l244 864h145v-1126h-94v823q0 79 4 197h-2q-8 -37 -24.5 -97t-20.5 -75l-238 -848h-102l-238 848q-4 15 -20.5 75t-24.5 97h-2q4 -118 4 -197v-823h-94z" />
<glyph unicode="&#x43d;" horiz-adv-x="940" d="M139 0v1126h105v-518h452v518h105v-1126h-105v518h-452v-518h-105z" />
<glyph unicode="&#x43e;" horiz-adv-x="878" d="M96 500v127q0 154 18.5 254t61.5 160t106 84t158 24t157 -24t105 -84t61.5 -160t18.5 -254v-127q0 -154 -18.5 -254t-61 -160.5t-105 -84.5t-157.5 -24q-96 0 -159 24t-105.5 84.5t-61 160.5t-18.5 254zM201 500q0 -176 22 -267.5t72 -128t145 -36.5t144.5 36.5t71.5 128 t22 267.5v127q0 176 -22 267.5t-71.5 128t-144.5 36.5t-145 -36.5t-72 -128t-22 -267.5v-127z" />
<glyph unicode="&#x43f;" horiz-adv-x="925" d="M139 0v1126h647v-1126h-104v1036h-438v-1036h-105z" />
<glyph unicode="&#x440;" horiz-adv-x="915" d="M139 -383v1509h72l27 -106q63 57 133 93t127 36q80 0 136 -23t99 -80.5t63.5 -161t20.5 -257.5v-127q0 -124 -14 -215t-39.5 -150t-66 -94.5t-88 -49.5t-111.5 -14q-130 0 -254 105v-465h-105zM244 184q57 -54 124.5 -84t123.5 -30q85 0 131 35.5t69 128.5t23 266v127 q0 173 -23 266t-69 128.5t-131 35.5q-50 0 -119.5 -38.5t-128.5 -94.5v-740z" />
<glyph unicode="&#x441;" horiz-adv-x="841" d="M96 500v127q0 156 20 258t64.5 160t106.5 81t155 23q163 0 236.5 -77.5t73.5 -254.5h-103q0 130 -44 186t-163 56q-94 0 -144 -35.5t-73.5 -128t-23.5 -268.5v-127q0 -176 23.5 -268.5t73.5 -128t144 -35.5q119 0 163 55.5t44 185.5h103q0 -177 -73.5 -254.5 t-236.5 -77.5q-93 0 -155 23t-106.5 81.5t-64.5 160.5t-20 258z" />
<glyph unicode="&#x442;" horiz-adv-x="720" d="M45 1032v94h631v-94h-264v-1032h-103v1032h-264z" />
<glyph unicode="&#x443;" horiz-adv-x="806" d="M49 1126h111l215 -811l35 -165q20 106 36 165l211 811h111l-350 -1296q-36 -129 -91.5 -182.5t-148.5 -53.5q-43 0 -108 21v98q61 -22 104 -22q54 0 88.5 36t59.5 136l36 137z" />
<glyph unicode="&#x444;" horiz-adv-x="1355" d="M96 500v127q0 124 14.5 215t40 149.5t66.5 94t89 49.5t112 14q94 0 209 -66v426h102v-426q115 66 211 66q64 0 111.5 -14t88.5 -49.5t66.5 -94t39.5 -149.5t14 -215v-127q0 -124 -14 -215t-39.5 -150t-66.5 -94.5t-88.5 -49.5t-111.5 -14q-93 0 -211 64v-424h-102v424 q-118 -64 -209 -64q-64 0 -112 14t-89 49.5t-66.5 94.5t-40 150t-14.5 215zM201 500q0 -173 23 -266.5t69.5 -129.5t130.5 -36q92 0 203 67v854q-116 70 -203 70q-84 0 -130.5 -36t-69.5 -129.5t-23 -266.5v-127zM729 135q111 -67 203 -67q85 0 131.5 36t69 129.5 t22.5 266.5v127q0 173 -22.5 266.5t-69 129.5t-131.5 36q-87 0 -203 -70v-854z" />
<glyph unicode="&#x445;" horiz-adv-x="788" d="M33 0l301 586l-277 540h115l180 -368l43 -94q27 61 41 94l180 368h117l-278 -540l301 -586h-115l-205 418l-41 92q-29 -61 -43 -92l-207 -418h-112z" />
<glyph unicode="&#x446;" horiz-adv-x="919" d="M139 0v1126h105v-1036h411v1036h105v-1036h102v-248h-74l-28 158h-621z" />
<glyph unicode="&#x447;" horiz-adv-x="854" d="M90 645v481h105v-481q0 -73 10.5 -118.5t35.5 -69t55 -31.5t79 -8q105 0 235 104v604h105v-1126h-105v422q-127 -98 -248 -98q-133 0 -202.5 72t-69.5 249z" />
<glyph unicode="&#x448;" horiz-adv-x="1202" d="M139 0v1126h105v-1036h305v1036h104v-1036h308v1036h102v-1126h-924z" />
<glyph unicode="&#x449;" horiz-adv-x="1241" d="M139 0v1126h105v-1036h315v1036h103v-1036h315v1036h104v-1036h105v-248h-76l-29 158h-942z" />
<glyph unicode="&#x44a;" horiz-adv-x="1013" d="M57 1036v90h322v-362h190q178 0 275.5 -87.5t97.5 -291.5q0 -206 -96 -295.5t-275 -89.5h-297v1036h-217zM379 90h192q139 0 204 70t65 225q0 154 -66 221.5t-205 67.5h-190v-584z" />
<glyph unicode="&#x44b;" horiz-adv-x="1241" d="M139 0v1126h105v-362h190q178 0 275.5 -87.5t97.5 -291.5q0 -206 -96 -295.5t-275 -89.5h-297zM244 90h192q138 0 203.5 70t65.5 225q0 154 -66 221.5t-205 67.5h-190v-584zM997 0v1126h105v-1126h-105z" />
<glyph unicode="&#x44c;" horiz-adv-x="878" d="M139 0v1126h105v-362h190q178 0 275.5 -87.5t97.5 -291.5q0 -206 -96 -295.5t-275 -89.5h-297zM244 90h192q138 0 203.5 70t65.5 225q0 154 -66 221.5t-205 67.5h-190v-584z" />
<glyph unicode="&#x44d;" horiz-adv-x="849" d="M96 309h105q0 -130 44 -185.5t163 -55.5q94 0 144 35.5t73.5 128t23.5 268.5v22h-293v90h293v15q0 176 -23.5 268.5t-73.5 128t-144 35.5q-119 0 -163 -56t-44 -186h-105q0 177 74.5 254.5t237.5 77.5q74 0 127.5 -14.5t96 -49t68 -94.5t39 -149.5t13.5 -214.5v-127 q0 -156 -19.5 -258t-64 -160.5t-106 -81.5t-154.5 -23q-163 0 -237.5 77.5t-74.5 254.5z" />
<glyph unicode="&#x44e;" horiz-adv-x="1253" d="M139 0v1126h105v-520h227v21q0 154 18.5 254t61 160t105 84t157.5 24t157.5 -24t105 -84t61 -160t18.5 -254v-127q0 -154 -18 -254t-60.5 -160.5t-105 -84.5t-158.5 -24t-158.5 24t-105 84.5t-60.5 160.5t-18 254v20h-227v-520h-105zM573 500q0 -175 23 -267t73 -128.5 t144 -36.5q95 0 145 36.5t72.5 128.5t22.5 267v127q0 175 -22.5 267t-72.5 128.5t-145 36.5q-94 0 -144 -36.5t-73 -128.5t-23 -267v-127z" />
<glyph unicode="&#x44f;" horiz-adv-x="876" d="M78 0l223 453q-213 62 -213 325q0 102 22.5 170t69.5 107t111.5 55t157.5 16h288v-1126h-104v442h-230l-208 -442h-117zM193 778q0 -140 55 -193t192 -53h193v504h-184q-70 0 -114 -9.5t-78.5 -37t-49 -79t-14.5 -132.5z" />
<glyph unicode="&#x451;" horiz-adv-x="862" d="M96 500v127q0 156 20 258t64 160t104.5 81t151.5 23q89 0 148 -23.5t101.5 -82.5t61.5 -161.5t19 -258.5v-105h-565q0 -117 8.5 -195t25.5 -129.5t49 -78.5t71.5 -37t101.5 -10q135 0 280 59v-100q-141 -50 -293 -50q-95 0 -156.5 22t-106.5 80t-65 160.5t-20 260.5z M201 608h461q0 187 -20 282t-67 132t-139 37t-140.5 -36.5t-71.5 -133t-23 -281.5zM264 1264v135h127v-135h-127zM489 1264v135h127v-135h-127z" />
<glyph unicode="&#x452;" horiz-adv-x="913" d="M0 1300v78h139v131h105v-131h254v-78h-254v-274q133 123 252 123q102 0 162 -32.5t92 -118.5t32 -238v-840q0 -130 -42 -190t-140 -60q-9 0 -78 11v94q41 -13 70 -13q47 0 66.5 35.5t19.5 120.5v842q0 118 -20.5 183.5t-60 90.5t-108.5 25q-100 0 -245 -137v-922h-105 v1300h-139z" />
<glyph unicode="&#x453;" horiz-adv-x="704" d="M139 0v1126h520v-90h-415v-1036h-105zM360 1249l93 262h133l-146 -262h-80z" />
<glyph unicode="&#x454;" horiz-adv-x="849" d="M96 500v127q0 156 20 258t64.5 160t106.5 81t155 23q163 0 236.5 -77.5t73.5 -254.5h-103q0 130 -44 186t-163 56q-94 0 -144 -35.5t-73.5 -128t-23.5 -268.5v-15h293v-90h-293v-22q0 -176 23.5 -268.5t73.5 -128t144 -35.5q119 0 163 55.5t44 185.5h103 q0 -177 -73.5 -254.5t-236.5 -77.5q-93 0 -155 23t-106.5 81.5t-64.5 160.5t-20 258z" />
<glyph unicode="&#x455;" horiz-adv-x="831" d="M84 309h102q0 -128 50.5 -184.5t171.5 -56.5q75 0 124 16.5t72.5 50.5t32 72.5t8.5 95.5q0 101 -55.5 150.5t-179.5 68.5q-155 22 -231.5 96t-76.5 216q0 162 82 238.5t228 76.5q162 0 236.5 -79.5t74.5 -252.5h-100q0 129 -48.5 185.5t-162.5 56.5q-103 0 -155 -51.5 t-52 -173.5q0 -109 54.5 -157.5t168.5 -64.5q173 -23 246.5 -93.5t73.5 -215.5q0 -59 -7.5 -104t-29 -88.5t-58.5 -71.5t-99 -45t-146 -17q-96 0 -160.5 23.5t-99.5 69.5t-49 103t-15 136z" />
<glyph unicode="&#x456;" horiz-adv-x="401" d="M137 1374v135h127v-135h-127zM150 0v1126h102v-1126h-102z" />
<glyph unicode="&#x457;" horiz-adv-x="401" d="M25 1264v135h127v-135h-127zM150 0h102v1126h-102v-1126zM250 1264v135h127v-135h-127z" />
<glyph unicode="&#x458;" horiz-adv-x="395" d="M-61 -283q68 -30 118 -30q45 0 64.5 37.5t19.5 123.5v1278h105v-1276q0 -131 -42.5 -193.5t-140.5 -62.5q-72 0 -124 25v98zM131 1374v135h125v-135h-125z" />
<glyph unicode="&#x459;" horiz-adv-x="1384" d="M33 0v90q30 -6 55 -6q42 0 65 21.5t23 74.5v946h602v-518h207q180 0 267 -73t87 -232t-87 -231t-265 -72h-313v1036h-395v-852q0 -103 -45 -145.5t-142 -42.5q-31 0 -59 4zM778 90h209q134 0 193 49t59 164t-59.5 165t-194.5 50h-207v-428z" />
<glyph unicode="&#x45a;" horiz-adv-x="1406" d="M139 0v1126h105v-518h452v518h105v-518h207q180 0 267 -73t87 -232t-87 -231t-265 -72h-314v518h-452v-518h-105zM801 90h209q134 0 193 49t59 164t-59.5 165t-194.5 50h-207v-428z" />
<glyph unicode="&#x45b;" horiz-adv-x="907" d="M0 1300v78h139v131h105v-131h254v-78h-254v-274q133 123 252 123q102 0 162 -32.5t92 -118.5t32 -238v-760h-104v760q0 118 -20.5 183.5t-60 90.5t-108.5 25q-100 0 -245 -137v-922h-105v1300h-139z" />
<glyph unicode="&#x45c;" horiz-adv-x="772" d="M139 0v1126h105v-516l360 516h121l-342 -477l-59 -78q43 -50 63 -79l352 -492h-125l-370 528v-528h-105zM375 1249l92 262h133l-145 -262h-80z" />
<glyph unicode="&#x45e;" horiz-adv-x="806" d="M49 1126h111l215 -811l35 -165q20 106 36 165l211 811h111l-350 -1296q-36 -129 -91.5 -182.5t-148.5 -53.5q-43 0 -108 21v98q61 -22 104 -22q54 0 88.5 36t59.5 136l36 137zM217 1401h82q0 -58 27 -90.5t82 -32.5q108 0 108 123h84q0 -92 -48.5 -149.5t-143.5 -57.5 t-143 57t-48 150z" />
<glyph unicode="&#x45f;" horiz-adv-x="925" d="M139 0v1126h105v-1036h438v1036h104v-1126h-270v-225h-106v225h-271z" />
<glyph unicode="&#x490;" horiz-adv-x="788" d="M158 0v1464h477v271h108v-365h-477v-1370h-108z" />
<glyph unicode="&#x491;" horiz-adv-x="704" d="M139 0v1126h422v248h98v-338h-415v-1036h-105z" />
<glyph unicode="&#x1e02;" horiz-adv-x="966" d="M158 0v1464h344q186 0 265 -86.5t79 -287.5q0 -242 -184 -342q215 -83 215 -359q0 -215 -83.5 -302t-267.5 -87h-368zM266 94h260q134 0 189 70t55 231q0 152 -57 227.5t-176 75.5h-271v-604zM266 788h271q100 0 150 81.5t50 213.5q0 158 -53.5 222.5t-181.5 64.5h-236 v-582zM422 1599v140h135v-140h-135z" />
<glyph unicode="&#x1e03;" horiz-adv-x="917" d="M141 0v1509h105v-481q147 121 254 121q80 0 136 -23t99 -80.5t63.5 -161t20.5 -257.5v-127q0 -124 -14 -215t-39.5 -150t-66 -94.5t-88 -49.5t-111.5 -14q-56 0 -127.5 37t-136.5 92l-23 -106h-72zM246 205q63 -60 130 -98.5t118 -38.5q84 0 130.5 36t69.5 129.5 t23 266.5v127q0 173 -23 266.5t-69.5 129.5t-130.5 36q-50 0 -119 -40t-129 -97v-717zM434 1262v139h135v-139h-135z" />
<glyph unicode="&#x1e0a;" horiz-adv-x="983" d="M158 0v1464h313q79 0 138.5 -14t110.5 -49.5t83 -94t49.5 -149.5t17.5 -215v-420q0 -124 -17.5 -215t-49.5 -149.5t-83 -94t-110.5 -49.5t-138.5 -14h-313zM266 94h205q72 0 123 18.5t91 65t59.5 132t19.5 212.5v420q0 127 -19.5 212.5t-59.5 132t-91 65t-123 18.5h-205 v-1276zM418 1599v140h135v-140h-135z" />
<glyph unicode="&#x1e0b;" horiz-adv-x="915" d="M96 500v127q0 124 14.5 215t40 149.5t66.5 94t89 49.5t112 14q103 0 254 -121v481h102v-1509h-72l-22 106q-63 -54 -134.5 -91.5t-127.5 -37.5q-64 0 -112 14t-89 49.5t-66.5 94.5t-40 150t-14.5 215zM201 500q0 -173 23 -266.5t69.5 -129.5t130.5 -36q100 0 248 137v717 q-63 58 -131 97.5t-117 39.5q-84 0 -130.5 -36t-69.5 -129.5t-23 -266.5v-127zM350 1262v139h135v-139h-135z" />
<glyph unicode="&#x1e1e;" horiz-adv-x="811" d="M158 0v1464h575v-94h-467v-582h408v-90h-408v-698h-108zM389 1599v140h135v-140h-135z" />
<glyph unicode="&#x1e1f;" horiz-adv-x="491" d="M43 1036v66l98 24v185q0 221 195 221q53 0 121 -25v-92q-68 27 -119 27q-48 0 -70 -30.5t-22 -102.5v-183h164v-90h-164v-1036h-105v1036h-98zM240 1626v139h135v-139h-135z" />
<glyph unicode="&#x1e40;" horiz-adv-x="1261" d="M158 0v1464h157l275 -1126q7 -29 20.5 -96.5t20.5 -96.5q11 67 41 193l274 1126h158v-1464h-105v1079q0 21 2 74t5 113.5t4 76.5q-23 -115 -58 -260l-262 -1083h-119l-262 1083q-30 124 -57 260q10 -255 10 -264v-1079h-104zM557 1599v140h135v-140h-135z" />
<glyph unicode="&#x1e41;" horiz-adv-x="1351" d="M141 0v1126h70l22 -106q142 129 261 129q86 0 137.5 -35.5t83.5 -101.5q127 137 262 137q74 0 123 -21t74.5 -65.5t35 -98.5t9.5 -135v-829h-105v829q0 125 -33.5 177.5t-119.5 52.5q-85 0 -230 -137v-922h-102v829q0 126 -33 178t-119 52q-88 0 -231 -135v-924h-105z M604 1262v139h135v-139h-135z" />
<glyph unicode="&#x1e56;" horiz-adv-x="944" d="M160 0v1464h332q99 0 165 -20.5t112.5 -71t67.5 -137t21 -217.5q0 -236 -85 -338t-277 -102h-228v-578h-108zM268 672h228q140 0 196 76t56 270q0 109 -14 178t-47 107.5t-78.5 52.5t-116.5 14h-224v-698zM401 1599v140h136v-140h-136z" />
<glyph unicode="&#x1e57;" horiz-adv-x="925" d="M141 -383v1509h72l27 -106q63 57 133 93t127 36q80 0 136 -23t99 -80.5t63.5 -161t20.5 -257.5v-127q0 -124 -14 -215t-39.5 -150t-66 -94.5t-88 -49.5t-111.5 -14q-111 0 -254 121v-481h-105zM246 203q62 -59 129 -97t119 -38q84 0 130.5 36t69.5 129.5t23 266.5v127 q0 173 -23 266.5t-69.5 129.5t-130.5 36q-50 0 -119.5 -39.5t-128.5 -95.5v-721zM414 1262v139h135v-139h-135z" />
<glyph unicode="&#x1e60;" horiz-adv-x="921" d="M94 373h109q0 -89 16.5 -149t51 -92.5t79 -46t107.5 -13.5q142 0 199 71.5t57 225.5q0 84 -8.5 135t-35.5 95.5t-79.5 70t-138.5 39.5q-183 31 -260.5 126t-77.5 265q0 188 87 287.5t255 99.5q176 0 260 -93.5t84 -310.5h-109q0 174 -54.5 242t-180.5 68 q-120 0 -178 -71.5t-58 -221.5q0 -137 55.5 -206.5t190.5 -90.5q107 -17 177.5 -51t109.5 -90.5t54 -125.5t15 -167q0 -200 -84 -296t-280 -96q-85 0 -148 18t-113.5 61.5t-76 122.5t-25.5 194zM391 1599v140h135v-140h-135z" />
<glyph unicode="&#x1e61;" horiz-adv-x="831" d="M84 309h102q0 -128 50.5 -184.5t171.5 -56.5q75 0 124 16.5t72.5 50.5t32 72.5t8.5 95.5q0 101 -55.5 150.5t-179.5 68.5q-155 22 -231.5 96t-76.5 216q0 162 82 238.5t228 76.5q162 0 236.5 -79.5t74.5 -252.5h-100q0 129 -48.5 185.5t-162.5 56.5q-103 0 -155 -51.5 t-52 -173.5q0 -109 54.5 -157.5t168.5 -64.5q173 -23 246.5 -93.5t73.5 -215.5q0 -59 -7.5 -104t-29 -88.5t-58.5 -71.5t-99 -45t-146 -17q-96 0 -160.5 23.5t-99.5 69.5t-49 103t-15 136zM348 1262v139h135v-139h-135z" />
<glyph unicode="&#x1e6a;" horiz-adv-x="743" d="M33 1370v94h676v-94h-283v-1370h-109v1370h-284zM303 1599v140h135v-140h-135z" />
<glyph unicode="&#x1e6b;" horiz-adv-x="520" d="M45 1036v66l98 24v267l105 24v-291h196v-90h-196v-819q0 -84 22.5 -116.5t73.5 -32.5q47 0 131 30v-96q-63 -25 -137 -25q-101 0 -148 53.5t-47 186.5v819h-98zM133 1503v139h135v-139h-135z" />
<glyph unicode="&#x1e80;" horiz-adv-x="1372" d="M80 1464h110l166 -999q10 -67 24 -173.5t17 -129.5q17 147 45 301l187 1001h127l186 -1001q4 -22 45 -301q18 155 41 303l164 999h113l-252 -1464h-125l-201 1090q-29 189 -35 243q-30 -207 -37 -243l-200 -1090h-123zM512 1849h133l92 -262h-80z" />
<glyph unicode="&#x1e81;" horiz-adv-x="1198" d="M49 1126h109l176 -1005l194 1005h142l194 -1005l176 1005h109l-213 -1126h-139l-197 1020l-199 -1020h-137zM420 1511h133l92 -262h-80z" />
<glyph unicode="&#x1e82;" horiz-adv-x="1372" d="M80 1464h110l166 -999q10 -67 24 -173.5t17 -129.5q17 147 45 301l187 1001h127l186 -1001q4 -22 45 -301q18 155 41 303l164 999h113l-252 -1464h-125l-201 1090q-29 189 -35 243q-30 -207 -37 -243l-200 -1090h-123zM651 1587l92 262h134l-146 -262h-80z" />
<glyph unicode="&#x1e83;" horiz-adv-x="1198" d="M49 1126h109l176 -1005l194 1005h142l194 -1005l176 1005h109l-213 -1126h-139l-197 1020l-199 -1020h-137zM563 1249l92 262h133l-145 -262h-80z" />
<glyph unicode="&#x1e84;" horiz-adv-x="1372" d="M80 1464h110l166 -999q10 -67 24 -173.5t17 -129.5q17 147 45 301l187 1001h127l186 -1001q4 -22 45 -301q18 155 41 303l164 999h113l-252 -1464h-125l-201 1090q-29 189 -35 243q-30 -207 -37 -243l-200 -1090h-123zM516 1602v135h127v-135h-127zM741 1602v135h127 v-135h-127z" />
<glyph unicode="&#x1e85;" horiz-adv-x="1198" d="M49 1126h109l176 -1005l194 1005h142l194 -1005l176 1005h109l-213 -1126h-139l-197 1020l-199 -1020h-137zM426 1264v135h127v-135h-127zM651 1264v135h127v-135h-127z" />
<glyph unicode="&#x1ef2;" horiz-adv-x="804" d="M35 1464h117l251 -731l252 731h115l-313 -864v-600h-109v600zM231 1849h134l92 -262h-80z" />
<glyph unicode="&#x1ef3;" horiz-adv-x="778" d="M29 1126h112l248 -966l246 966h113l-349 -1296q-35 -130 -89.5 -183t-151.5 -53q-63 0 -101 21v102q51 -30 101 -30q51 0 86.5 38t58.5 138l35 139zM225 1511h133l93 -262h-80z" />
<glyph unicode="&#x2013;" horiz-adv-x="819" d="M90 606v90h639v-90h-639z" />
<glyph unicode="&#x2014;" horiz-adv-x="1214" d="M113 608v86h989v-86h-989z" />
<glyph unicode="&#x2018;" horiz-adv-x="339" d="M90 1464h137v-540h-67z" />
<glyph unicode="&#x2019;" horiz-adv-x="339" d="M113 924v540h137l-70 -540h-67z" />
<glyph unicode="&#x201a;" horiz-adv-x="339" d="M113 -270v540h137l-70 -540h-67z" />
<glyph unicode="&#x201c;" horiz-adv-x="563" d="M90 1464h137v-540h-67zM313 1464h138v-540h-68z" />
<glyph unicode="&#x201d;" horiz-adv-x="563" d="M113 924v540h137l-70 -540h-67zM336 924v540h137l-70 -540h-67z" />
<glyph unicode="&#x201e;" horiz-adv-x="559" d="M113 -270v540h137l-70 -540h-67zM332 -270v540h137l-70 -540h-67z" />
<glyph unicode="&#x2020;" horiz-adv-x="585" d="M72 1186v78h172v245h98v-245h172v-78h-172v-600h-98v600h-172z" />
<glyph unicode="&#x2021;" horiz-adv-x="587" d="M72 831v78h172v277h-172v78h172v245h98v-245h172v-78h-172v-277h172v-78h-172v-245h-98v245h-172z" />
<glyph unicode="&#x2022;" horiz-adv-x="839" d="M158 686v96q0 100 15.5 165.5t50 102t81 50.5t117.5 14q72 0 118 -14t79.5 -51t48 -101.5t14.5 -165.5v-96q0 -102 -14.5 -167.5t-48 -102.5t-79.5 -50.5t-118 -13.5q-57 0 -97 8.5t-73.5 30t-53 59.5t-30 96t-10.5 140z" />
<glyph unicode="&#x2026;" horiz-adv-x="929" d="M135 0v162h152v-162h-152zM389 0v162h152v-162h-152zM645 0v162h150v-162h-150z" />
<glyph unicode="&#x2030;" horiz-adv-x="1495" d="M98 1159q0 178 56.5 253t177.5 75t176 -75t55 -253q0 -179 -54.5 -251t-176.5 -72t-178 72.5t-56 250.5zM164 0l698 1464h111l-699 -1464h-110zM199 1159q0 -135 30.5 -186t102.5 -51q70 0 100.5 51.5t30.5 185.5t-30.5 187t-100.5 53q-72 0 -102.5 -52.5t-30.5 -187.5z M573 301q0 178 56.5 253t177.5 75q130 0 180 -94q50 94 184 94q121 0 176.5 -75t55.5 -253q0 -179 -55 -251.5t-177 -72.5q-133 0 -184 91q-51 -91 -180 -91q-122 0 -178 73t-56 251zM674 301q0 -135 30.5 -186.5t102.5 -51.5q70 0 100.5 52t30.5 186t-30.5 187t-100.5 53 q-72 0 -102.5 -52.5t-30.5 -187.5zM1038 301q0 -135 30.5 -186.5t102.5 -51.5q70 0 101 52t31 186t-31 187t-101 53q-72 0 -102.5 -52.5t-30.5 -187.5z" />
<glyph unicode="&#x2039;" horiz-adv-x="563" d="M113 563l229 408h109l-230 -408l230 -407h-107z" />
<glyph unicode="&#x203a;" horiz-adv-x="561" d="M113 156l229 407l-229 408h108l228 -406l-228 -409h-108z" />
<glyph unicode="&#x20ac;" horiz-adv-x="989" d="M76 555v90h110v174h-110v90h110v52q0 293 82 409.5t283 116.5q181 0 265.5 -94t84.5 -314h-108q0 177 -56 245.5t-186 68.5q-97 0 -151.5 -39t-79.5 -131.5t-25 -259.5v-54h395l-12 -90h-383v-174h358l-12 -90h-346v-47q0 -169 24.5 -262.5t78.5 -133.5t153 -40 q130 0 186 67t56 244h108q0 -218 -84.5 -312t-265.5 -94q-133 0 -210 46.5t-116 163.5t-39 323v45h-110z" />
<glyph unicode="&#x2122;" horiz-adv-x="974" d="M72 1405v59h303v-59h-119v-524h-68v524h-116zM424 881v583h98l90 -366q10 -36 21 -88t12 -56q17 89 31 144l92 366h96v-583h-61v336q0 5 6 194q-14 -68 -45 -192l-86 -338h-68l-86 338q-7 31 -22 93t-23 99q1 -19 4.5 -87t3.5 -107v-336h-63z" />
<glyph unicode="&#x2153;" horiz-adv-x="1136" d="M143 1399v41l136 24h43v-678h-70v613h-109zM145 0l713 1464h72l-711 -1464h-74zM637 184h68q0 -79 24 -108t80 -29q57 0 84 32t27 105q0 131 -72 131h-88v60h88q28 0 42.5 29t14.5 77q0 80 -23 114t-77 34q-55 0 -77.5 -28.5t-22.5 -108.5h-68q0 105 42.5 151.5 t125.5 46.5q86 0 127 -49.5t41 -155.5q0 -42 -19.5 -80t-48.5 -59q82 -44 82 -162q0 -196 -178 -196q-89 0 -130.5 44.5t-41.5 151.5z" />
<glyph unicode="&#x2154;" horiz-adv-x="1200" d="M145 1253q0 224 168 224q93 0 130.5 -54t37.5 -157q0 -52 -27 -99t-65 -82.5t-77 -70.5t-66.5 -77.5t-28.5 -88.5h275v-62h-340v48q0 63 27 113.5t65 84.5t76 66.5t65 75t27 92.5q0 75 -22.5 112t-76.5 37t-76 -39t-22 -123h-70zM209 0l713 1464h71l-712 -1464h-72z M700 184h68q0 -79 24 -108t80 -29q57 0 84 32t27 105q0 131 -74 131h-86v60h86q30 0 45 29t15 77q0 79 -23.5 113.5t-77.5 34.5q-56 0 -78 -28t-22 -109h-68q0 105 42.5 151.5t125.5 46.5q86 0 127 -49.5t41 -155.5q0 -43 -19 -80.5t-48 -58.5q82 -44 82 -162 q0 -196 -179 -196q-89 0 -130.5 44.5t-41.5 151.5z" />
<glyph unicode="&#x215b;" horiz-adv-x="1140" d="M143 1399v41l136 24h43v-678h-70v613h-109zM145 0l713 1464h72l-711 -1464h-74zM618 178q0 113 89 166q-74 56 -74 158q0 188 172 188t172 -188q0 -57 -16.5 -94t-59.5 -64q41 -27 64.5 -70.5t23.5 -95.5q0 -99 -43.5 -144.5t-140.5 -45.5t-142 46t-45 144zM690 180 q0 -71 25.5 -102t89.5 -31q65 0 91 31t26 102q0 57 -24 96t-73 39h-41q-49 0 -71.5 -39t-22.5 -96zM700 498q0 -58 21.5 -90.5t62.5 -32.5h41q40 0 62 33t22 90q0 71 -24.5 101t-79.5 30t-80 -30t-25 -101z" />
<glyph unicode="&#x215c;" horiz-adv-x="1202" d="M145 971h66q0 -81 25 -112.5t81 -31.5q57 0 84 32t27 108q0 129 -72 129h-88v57h88q29 0 43.5 32t14.5 81q0 79 -23.5 113t-77.5 34t-78 -31t-24 -112h-66q0 107 42 155t126 48q86 0 126 -50.5t40 -156.5q0 -39 -17.5 -77.5t-41.5 -62.5q76 -51 76 -159q0 -199 -179 -199 q-90 0 -131 46t-41 157zM209 0l713 1464h71l-712 -1464h-72zM682 178q0 116 88 166q-74 56 -74 164q0 186 172 186q170 0 170 -186q0 -115 -73 -164q40 -27 64 -71t24 -95q0 -99 -44.5 -144.5t-140.5 -45.5q-98 0 -142 45.5t-44 144.5zM750 180q0 -70 26.5 -101.5 t91.5 -31.5q64 0 90.5 31.5t26.5 101.5q0 57 -24 96t-74 39h-39q-49 0 -73.5 -39t-24.5 -96zM762 502q0 -58 22.5 -92.5t63.5 -34.5h39q41 0 63.5 34.5t22.5 92.5q0 72 -25 101.5t-80 29.5q-57 0 -81.5 -29.5t-24.5 -101.5z" />
<glyph unicode="&#x215d;" horiz-adv-x="1202" d="M145 975h70q0 -77 22.5 -112.5t79.5 -35.5q61 0 86 39.5t25 126.5q0 176 -96 176q-60 0 -111 -51h-61l26 346h283v-59h-225l-19 -223q56 41 115 41q154 0 154 -230q0 -113 -42 -169t-135 -56q-94 0 -133 53t-39 154zM209 0l713 1464h71l-712 -1464h-72zM682 178 q0 116 88 166q-74 56 -74 164q0 186 172 186q170 0 170 -186q0 -115 -73 -164q40 -27 64 -71t24 -95q0 -99 -44.5 -144.5t-140.5 -45.5q-98 0 -142 45.5t-44 144.5zM750 180q0 -70 26.5 -101.5t91.5 -31.5q64 0 90.5 31.5t26.5 101.5q0 57 -24 96t-74 39h-39 q-49 0 -73.5 -39t-24.5 -96zM762 502q0 -58 22.5 -92.5t63.5 -34.5h39q41 0 63.5 34.5t22.5 92.5q0 72 -25 101.5t-80 29.5q-57 0 -81.5 -29.5t-24.5 -101.5z" />
<glyph unicode="&#x215e;" horiz-adv-x="1136" d="M141 1405v59h332v-49l-186 -629h-70l186 619h-262zM143 0l713 1464h72l-711 -1464h-74zM616 178q0 113 89 166q-74 56 -74 164q0 186 172 186q170 0 170 -186q0 -114 -74 -164q40 -27 64 -71t24 -95q0 -99 -44 -144.5t-140 -45.5q-98 0 -142.5 45.5t-44.5 144.5zM684 180 q0 -70 27 -101.5t92 -31.5t91 31t26 102q0 57 -24 96t-73 39h-41q-49 0 -73.5 -39t-24.5 -96zM696 502q0 -58 22.5 -92.5t63.5 -34.5h41q39 0 61.5 34.5t22.5 92.5q0 72 -24.5 101.5t-79.5 29.5q-57 0 -82 -29.5t-25 -101.5z" />
<glyph unicode="&#x2202;" horiz-adv-x="884" d="M96 500v127q0 152 20.5 253.5t63.5 160.5t103 83.5t147 24.5q154 0 229 -90q-26 133 -79.5 238.5t-147.5 211.5h123q130 -168 178.5 -358.5t48.5 -523.5v-127q0 -154 -18.5 -254t-61 -160.5t-105 -84.5t-157.5 -24q-96 0 -159 24t-105.5 84.5t-61 160.5t-18.5 254z M201 500q0 -176 22 -267.5t72 -128t145 -36.5t144.5 36.5t71.5 128t22 267.5v127q0 176 -22 267.5t-71.5 128t-144.5 36.5t-145 -36.5t-72 -128t-22 -267.5v-127z" />
<glyph unicode="&#x2212;" horiz-adv-x="864" d="M90 573v97h684v-97h-684z" />
<glyph unicode="&#x222b;" horiz-adv-x="604" d="M51 -193h113q46 0 67 33.5t21 108.5v1382q0 122 43.5 177t140.5 55h115v-86h-115q-82 0 -82 -142v-1386q0 -120 -46 -176t-144 -56h-113v90z" />
<glyph unicode="&#x2248;" horiz-adv-x="870" d="M90 299q0 236 182 236q44 0 83.5 -19.5t69 -47.5t56.5 -55.5t56.5 -47t58.5 -19.5q47 0 67.5 31.5t20.5 109.5h96q0 -123 -50 -179t-134 -56q-43 0 -82 19.5t-67.5 47t-55.5 55t-57 47t-60 19.5q-90 0 -90 -141h-94zM90 758q0 233 182 233q44 0 83.5 -19t69 -46.5 t56.5 -55t56.5 -46.5t58.5 -19q47 0 67.5 30.5t20.5 108.5h96q0 -123 -50 -179t-134 -56q-43 0 -82 19.5t-67.5 47t-55.5 55t-57 47t-60 19.5q-90 0 -90 -139h-94z" />
<glyph unicode="&#x2260;" horiz-adv-x="864" d="M90 344v96h250l92 357h-342v96h367l90 344h90l-90 -344h227v-96h-252l-92 -357h344v-96h-368l-89 -344h-90l88 344h-225z" />
<glyph unicode="&#x2264;" horiz-adv-x="677" d="M90 0v94h496v-94h-496zM92 770l359 461h131l-363 -461l363 -455h-131z" />
<glyph unicode="&#x2265;" horiz-adv-x="677" d="M90 0v94h496v-94h-496zM94 315l363 455l-363 461h131l359 -461l-359 -455h-131z" />
<glyph unicode="&#xe000;" horiz-adv-x="1126" d="M0 0v1126h1126v-1126h-1126z" />
<glyph horiz-adv-x="368" d="M129 1073v434h115l-45 -434h-70z" />
</font>
</defs>
</svg>
